<?xml version="1.0" standalone="no"?><!DOCTYPE svg PUBLIC "-//W3C//DTD SVG 1.1//EN" "http://www.w3.org/Graphics/SVG/1.1/DTD/svg11.dtd"><svg t="1753677782947" class="icon" viewBox="0 0 1024 1024" version="1.1" xmlns="http://www.w3.org/2000/svg" p-id="32750" xmlns:xlink="http://www.w3.org/1999/xlink" width="200" height="200"><path d="M952.900267 512C992.1536 512 1024 467.421867 1024 412.433067c0-54.954667-31.8464-99.5328-71.099733-99.5328-39.253333 0-71.133867 44.578133-71.133867 99.5328 0 54.9888 31.8464 99.566933 71.133867 99.566933zM71.099733 512c39.253333 0 71.133867-44.578133 71.133867-99.566933 0-54.954667-31.8464-99.5328-71.133867-99.5328C31.8464 312.900267 0 357.4784 0 412.433067 0 467.421867 31.8464 512 71.099733 512z" fill="#F4900C" p-id="32751"></path><path d="M967.099733 540.433067c0 15.735467-12.6976 28.4672-28.433066 28.4672H853.333333a28.433067 28.433067 0 0 1-28.433066-28.4672v-256c0-15.701333 12.6976-28.433067 28.433066-28.433067h85.333334c15.701333 0 28.433067 12.731733 28.433066 28.433067v256z m-768 0c0 15.735467-12.731733 28.4672-28.433066 28.4672H85.333333a28.433067 28.433067 0 0 1-28.433066-28.4672v-256c0-15.701333 12.731733-28.433067 28.433066-28.433067H170.666667c15.701333 0 28.433067 12.731733 28.433066 28.433067v256z" fill="#FFAC33" p-id="32752"></path><path d="M796.433067 142.2336c0 78.506667-127.351467 113.7664-284.433067 113.7664S227.566933 220.7744 227.566933 142.2336 354.884267 0 512 0c157.0816 0 284.433067 63.6928 284.433067 142.2336z" fill="#FFCC4D" p-id="32753"></path><path d="M711.099733 116.155733c0 45.806933-89.156267 82.944-199.099733 82.944-109.9776 0-199.099733-37.137067-199.099733-82.944C312.900267 70.314667 402.0224 33.1776 512 33.1776c109.909333 0 199.099733 37.137067 199.099733 82.944z" fill="#F4900C" p-id="32754"></path><path d="M853.333333 156.433067c0 39.287467-31.8464 42.666667-71.099733 42.666666H241.7664C202.513067 199.099733 170.666667 195.720533 170.666667 156.433067 170.666667 117.179733 202.513067 85.333333 241.7664 85.333333h540.4672c39.253333 0 71.099733 31.8464 71.099733 71.099734z" fill="#226699" p-id="32755"></path><path d="M853.333333 170.666667H170.666667c-31.402667 0-56.900267 25.4976-56.900267 56.900266v739.5328h796.4672V227.566933C910.2336 196.164267 884.736 170.666667 853.333333 170.666667z" fill="#55ACEE" p-id="32756"></path><path d="M995.566933 938.666667v-28.433067c0-31.402667-25.4976-56.900267-56.900266-56.900267h-310.8864l-95.675734 95.675734a28.398933 28.398933 0 0 1-40.209066 0L396.219733 853.333333H85.333333c-31.402667 0-56.900267 25.4976-56.900266 56.900267v28.433067c0 31.402667-2.935467 56.900267 28.4672 56.900266h910.199466c31.402667 0 28.4672-25.4976 28.4672-56.900266z" fill="#3B88C3" p-id="32757"></path><path d="M696.900267 540.433067a128 128 0 1 0 0-256 128 128 0 0 0 0 256z" fill="#FFFFFF" p-id="32758"></path><path d="M696.900267 489.813333a77.4144 77.4144 0 1 0 0-154.760533 77.4144 77.4144 0 0 0 0 154.794667z" fill="#DD2E44" p-id="32759"></path><path d="M327.099733 540.433067a128 128 0 1 0 0-256 128 128 0 0 0 0 256z" fill="#FFFFFF" p-id="32760"></path><path d="M824.900267 725.333333c0 39.253333-31.8464 71.099733-71.133867 71.099734H270.2336a71.099733 71.099733 0 1 1 0-142.199467h483.5328c39.287467 0 71.133867 31.812267 71.133867 71.099733z" fill="#F5F8FA" p-id="32761"></path><path d="M483.566933 654.2336h56.866134v142.199467h-56.866134v-142.199467z m-142.2336 0h56.900267v142.199467H341.333333v-142.199467z m284.433067 0H682.666667v142.199467h-56.900267v-142.199467z m-426.666667 71.099733c0 34.4064 24.439467 63.0784 56.900267 69.700267v-139.400533a71.133867 71.133867 0 0 0-56.900267 69.700266zM768 655.633067v139.3664a71.133867 71.133867 0 0 0 0-139.3664z" fill="#CCD6DD" p-id="32762"></path><path d="M327.099733 489.813333a77.4144 77.4144 0 1 0 0-154.760533 77.4144 77.4144 0 0 0 0 154.794667z" fill="#DD2E44" p-id="32763"></path></svg>