<?xml version="1.0" standalone="no"?><!DOCTYPE svg PUBLIC "-//W3C//DTD SVG 1.1//EN" "http://www.w3.org/Graphics/SVG/1.1/DTD/svg11.dtd"><svg height="1024" node-id="1" sillyvg="true" template-height="1024" template-width="1024" version="1.1" viewBox="0 0 1024 1024" width="1024" xmlns="http://www.w3.org/2000/svg" xmlns:xlink="http://www.w3.org/1999/xlink"><defs node-id="63"></defs><path d="M 942.20 544.50 L 663.40 544.50 L 658.00 543.80 L 653.10 541.80 L 648.80 538.50 L 645.50 534.20 L 643.40 529.20 L 642.80 523.90 L 642.80 137.20 L 642.90 134.50 L 644.30 129.30 L 647.00 124.70 L 648.80 122.60 L 653.10 119.30 L 658.00 117.30 L 660.60 116.80 L 942.20 116.60 L 947.50 117.30 L 952.40 119.30 L 956.70 122.60 L 960.00 126.90 L 962.10 131.90 L 962.80 137.20 L 962.80 523.90 L 962.60 526.60 L 961.20 531.80 L 958.50 536.40 L 956.70 538.50 L 954.70 540.30 L 950.00 542.90 L 944.90 544.30 L 942.20 544.50 Z" fill="#d6e8ff" fill-rule="nonzero" node-id="65" stroke="none" target-height="427.9" target-width="320" target-x="642.8" target-y="116.6"></path><path d="M 667.10 140.50 L 938.50 140.50 L 938.50 523.50 L 667.10 523.50 Z" fill="#ffffff" fill-rule="nonzero" node-id="67" stroke="none" target-height="383" target-width="271.40002" target-x="667.1" target-y="140.5"></path><path d="M 667.20 140.20 L 938.70 140.20 L 938.70 159.10 L 667.20 159.10 Z" fill="#75a2fa" fill-rule="nonzero" node-id="69" stroke="none" target-height="18.90001" target-width="271.5" target-x="667.2" target-y="140.2"></path><path d="M 892.50 150.80 L 903.00 150.80 L 903.00 153.10 L 892.50 153.10 Z" fill="#ffffff" fill-rule="nonzero" node-id="71" stroke="none" target-height="2.300003" target-width="10.5" target-x="892.5" target-y="150.8"></path><path d="M 916.20 154.30 L 908.70 146.80 L 910.30 145.20 L 917.90 152.60 L 916.20 154.30 Z" fill="#ffffff" fill-rule="nonzero" node-id="73" stroke="none" target-height="9.100006" target-width="9.200012" target-x="908.7" target-y="145.2"></path><path d="M 908.70 152.60 L 916.20 145.20 L 917.90 146.80 L 910.30 154.30 L 908.70 152.60 Z" fill="#ffffff" fill-rule="nonzero" node-id="75" stroke="none" target-height="9.100006" target-width="9.200012" target-x="908.7" target-y="145.2"></path><path d="M 922.20 144.70 L 922.20 154.30 L 931.90 154.30 L 931.90 144.70 Z M 930.00 152.40 L 924.10 152.40 L 924.10 146.50 L 930.00 146.50 Z" fill="#ffffff" fill-rule="nonzero" node-id="77" stroke="none" target-height="9.600006" target-width="9.700012" target-x="922.2" target-y="144.7"></path><path d="M 704.30 149.80 L 704.00 151.00 L 703.40 151.90 L 702.40 152.60 L 701.30 152.80 L 700.10 152.60 L 699.10 151.90 L 698.50 151.00 L 698.30 149.80 L 698.50 148.60 L 699.10 147.70 L 700.10 147.00 L 701.30 146.80 L 702.40 147.00 L 703.40 147.70 L 704.00 148.60 L 704.30 149.80 Z" fill="#ffffff" fill-rule="nonzero" node-id="79" stroke="none" target-height="6" target-width="6" target-x="698.3" target-y="146.8"></path><path d="M 691.60 149.80 L 691.40 151.00 L 690.80 151.90 L 689.80 152.60 L 688.70 152.80 L 687.50 152.60 L 686.50 151.90 L 685.90 151.00 L 685.70 149.80 L 685.90 148.60 L 686.50 147.70 L 687.50 147.00 L 688.70 146.80 L 689.80 147.00 L 690.80 147.70 L 691.40 148.60 L 691.60 149.80 Z" fill="#ffffff" fill-rule="nonzero" node-id="81" stroke="none" target-height="6" target-width="5.8999634" target-x="685.7" target-y="146.8"></path><path d="M 679.20 149.80 L 678.90 151.00 L 678.30 151.90 L 677.30 152.60 L 676.20 152.80 L 675.00 152.60 L 674.00 151.90 L 673.40 151.00 L 673.20 149.80 L 673.40 148.60 L 674.00 147.70 L 675.00 147.00 L 676.20 146.80 L 677.30 147.00 L 678.30 147.70 L 678.90 148.60 L 679.20 149.80 Z" fill="#ffffff" fill-rule="nonzero" node-id="83" stroke="none" target-height="6" target-width="6" target-x="673.2" target-y="146.8"></path><path d="M 681.60 185.30 L 917.90 185.30 L 917.90 223.60 L 681.60 223.60 Z" fill="#7fa8f9" fill-rule="nonzero" node-id="85" stroke="none" target-height="38.300003" target-width="236.30005" target-x="681.6" target-y="185.3"></path><path d="M 881.50 185.30 L 918.00 185.30 L 918.00 223.60 L 881.50 223.60 Z" fill="#fa6a85" fill-rule="nonzero" node-id="87" stroke="none" target-height="38.300003" target-width="36.5" target-x="881.5" target-y="185.3"></path><path d="M 690.00 195.90 L 872.50 195.90 L 872.50 211.40 L 690.00 211.40 Z" fill="#ffffff" fill-rule="nonzero" node-id="89" stroke="none" target-height="15.5" target-width="182.5" target-x="690" target-y="195.9"></path><path d="M 764.40 330.70 L 712.30 330.70 L 709.60 330.00 L 708.40 329.10 L 707.60 328.00 L 706.90 325.30 L 706.90 273.20 L 707.00 271.80 L 708.40 269.40 L 709.60 268.50 L 712.30 267.80 L 764.40 267.80 L 765.80 268.00 L 768.20 269.40 L 769.00 270.50 L 769.80 273.20 L 769.80 325.30 L 769.60 326.70 L 768.20 329.10 L 767.00 330.00 L 764.40 330.70 Z" fill="#b2cdff" fill-rule="nonzero" node-id="91" stroke="none" target-height="62.900024" target-width="62.899963" target-x="706.9" target-y="267.8"></path><path d="M 760.10 325.90 L 708.00 325.90 L 705.30 325.20 L 704.20 324.30 L 703.30 323.20 L 702.60 320.50 L 702.60 268.40 L 703.30 265.70 L 704.20 264.60 L 706.60 263.20 L 760.10 263.00 L 761.50 263.20 L 763.90 264.60 L 764.80 265.70 L 765.50 268.40 L 765.50 320.50 L 765.30 322.00 L 763.90 324.30 L 761.50 325.70 L 760.10 325.90 Z" fill="#84d4fd" fill-rule="nonzero" node-id="93" stroke="none" target-height="62.899994" target-width="62.900024" target-x="702.6" target-y="263"></path><path d="M 746.00 350.20 L 705.50 350.00 L 704.60 349.40 L 704.00 348.50 L 703.80 347.50 L 704.00 343.00 L 704.60 342.10 L 705.50 341.50 L 706.50 341.30 L 747.00 341.50 L 747.90 342.10 L 748.50 343.00 L 748.70 347.50 L 748.50 348.50 L 747.90 349.40 L 747.00 350.00 L 746.00 350.20 Z" fill="#8bb1f9" fill-rule="nonzero" node-id="95" stroke="none" target-height="8.900024" target-width="44.900024" target-x="703.8" target-y="341.3"></path><path d="M 764.50 370.60 L 706.40 370.60 L 705.40 370.40 L 704.50 369.80 L 704.00 368.90 L 703.80 367.90 L 704.00 363.50 L 704.50 362.60 L 705.40 362.00 L 706.40 361.80 L 764.50 361.80 L 765.50 362.00 L 766.40 362.60 L 766.90 363.50 L 767.20 364.50 L 766.90 369.00 L 766.40 369.90 L 765.50 370.40 L 764.50 370.60 Z" fill="#8bb1f9" fill-rule="nonzero" node-id="97" stroke="none" target-height="8.800018" target-width="63.400024" target-x="703.8" target-y="361.8"></path><path d="M 764.50 391.00 L 706.40 391.00 L 705.40 390.80 L 704.50 390.20 L 704.00 389.30 L 703.80 388.30 L 704.00 383.80 L 704.50 382.90 L 705.40 382.30 L 706.40 382.10 L 764.50 382.10 L 765.50 382.30 L 766.40 382.90 L 766.90 383.80 L 767.20 384.80 L 767.00 389.30 L 766.40 390.20 L 765.50 390.80 L 764.50 391.00 Z" fill="#8bb1f9" fill-rule="nonzero" node-id="99" stroke="none" target-height="8.899994" target-width="63.400024" target-x="703.8" target-y="382.1"></path><path d="M 892.60 330.70 L 840.50 330.70 L 839.00 330.50 L 836.60 329.10 L 835.20 326.70 L 835.10 325.30 L 835.10 273.20 L 835.20 271.80 L 836.60 269.40 L 839.00 268.00 L 892.60 267.80 L 895.20 268.50 L 896.40 269.40 L 897.80 271.80 L 898.00 273.20 L 898.00 325.30 L 897.20 328.00 L 896.40 329.10 L 895.20 330.00 L 892.60 330.70 Z" fill="#b2cdff" fill-rule="nonzero" node-id="101" stroke="none" target-height="62.900024" target-width="62.900024" target-x="835.1" target-y="267.8"></path><path d="M 888.30 325.90 L 836.20 325.90 L 834.70 325.70 L 832.30 324.30 L 830.90 321.90 L 830.80 320.50 L 830.80 268.40 L 831.50 265.70 L 832.30 264.60 L 834.70 263.20 L 888.30 263.00 L 889.70 263.20 L 892.10 264.60 L 893.50 267.00 L 893.70 268.40 L 893.70 320.50 L 893.40 322.00 L 892.10 324.30 L 889.70 325.70 L 888.30 325.90 Z" fill="#84d4fd" fill-rule="nonzero" node-id="103" stroke="none" target-height="62.899994" target-width="62.900024" target-x="830.8" target-y="263"></path><path d="M 874.20 350.20 L 833.60 350.00 L 832.70 349.40 L 832.20 348.50 L 832.00 347.50 L 832.20 343.00 L 832.70 342.10 L 833.60 341.50 L 834.70 341.30 L 875.20 341.50 L 876.10 342.10 L 876.60 343.00 L 876.90 347.50 L 876.60 348.50 L 876.10 349.40 L 875.20 350.00 L 874.20 350.20 Z" fill="#8bb1f9" fill-rule="nonzero" node-id="105" stroke="none" target-height="8.900024" target-width="44.900024" target-x="832" target-y="341.3"></path><path d="M 892.70 370.60 L 834.70 370.60 L 833.60 370.40 L 832.70 369.80 L 832.20 368.90 L 832.00 367.90 L 832.20 363.50 L 832.70 362.60 L 833.60 362.00 L 834.70 361.80 L 892.70 361.80 L 893.70 362.00 L 894.60 362.60 L 895.10 363.50 L 895.40 364.50 L 895.10 369.00 L 894.60 369.90 L 893.70 370.40 L 892.70 370.60 Z" fill="#8bb1f9" fill-rule="nonzero" node-id="107" stroke="none" target-height="8.800018" target-width="63.400024" target-x="832" target-y="361.8"></path><path d="M 892.70 391.00 L 834.70 391.00 L 833.60 390.80 L 832.70 390.20 L 832.20 389.30 L 832.00 388.30 L 832.20 383.80 L 832.70 382.90 L 833.60 382.30 L 834.70 382.10 L 892.70 382.10 L 894.60 382.90 L 895.10 383.80 L 895.40 384.80 L 895.20 389.30 L 894.60 390.20 L 893.70 390.80 L 892.70 391.00 Z" fill="#8bb1f9" fill-rule="nonzero" node-id="109" stroke="none" target-height="8.899994" target-width="63.400024" target-x="832" target-y="382.1"></path><path d="M 846.80 404.30 L 722.60 404.30 L 720.70 404.50 L 718.90 405.20 L 717.40 406.30 L 716.20 407.60 L 715.40 409.20 L 715.20 411.00 L 715.20 469.70 L 729.70 454.70 L 846.80 454.70 L 848.70 454.50 L 850.50 453.80 L 852.00 452.70 L 853.20 451.40 L 854.00 449.80 L 854.20 448.00 L 854.20 411.00 L 854.00 409.20 L 853.30 407.60 L 852.10 406.30 L 850.60 405.20 L 848.80 404.60 L 846.80 404.30 Z" fill="#3a3a77" fill-rule="nonzero" node-id="111" stroke="none" target-height="65.400024" target-width="139" target-x="715.2" target-y="404.3"></path><path d="M 757.90 423.80 L 726.40 423.60 L 725.40 423.00 L 724.60 422.00 L 724.20 420.70 L 724.20 418.70 L 724.60 417.40 L 725.40 416.40 L 726.40 415.80 L 727.80 415.60 L 759.20 415.80 L 760.20 416.40 L 761.00 417.40 L 761.40 418.70 L 761.40 420.70 L 761.00 422.00 L 760.30 423.00 L 759.10 423.70 L 757.90 423.80 Z" fill="#a4c0ff" fill-rule="nonzero" node-id="113" stroke="none" target-height="8.199982" target-width="37.200012" target-x="724.2" target-y="415.6"></path><path d="M 838.00 440.50 L 728.80 440.50 L 727.40 440.30 L 726.40 439.70 L 725.60 438.70 L 725.20 437.40 L 725.20 435.40 L 725.60 434.10 L 726.40 433.10 L 727.40 432.50 L 838.00 432.30 L 839.30 432.50 L 840.40 433.10 L 841.10 434.10 L 841.50 435.40 L 841.50 437.40 L 841.10 438.70 L 840.40 439.60 L 839.30 440.30 L 838.00 440.50 Z" fill="#99c0ff" fill-rule="nonzero" node-id="115" stroke="none" target-height="8.200012" target-width="116.29999" target-x="725.2" target-y="432.3"></path><path d="M 556.30 954.00 L 486.30 954.00 L 482.60 953.60 L 479.20 952.70 L 476.00 951.20 L 473.20 949.20 L 470.80 946.80 L 468.80 943.90 L 467.30 940.80 L 466.30 937.40 L 466.00 933.70 L 466.00 899.00 L 466.30 895.30 L 467.30 891.90 L 468.80 888.80 L 470.80 885.90 L 473.20 883.50 L 476.10 881.50 L 479.20 880.00 L 482.60 879.00 L 486.30 878.70 L 556.30 878.70 L 560.00 879.00 L 563.40 880.00 L 566.50 881.50 L 569.40 883.50 L 571.80 885.90 L 573.80 888.80 L 575.30 891.90 L 576.30 895.30 L 576.60 899.00 L 576.60 933.70 L 575.90 939.00 L 573.90 943.90 L 572.40 946.00 L 568.60 949.80 L 566.40 951.30 L 561.50 953.30 L 556.30 954.00 Z" fill="#d2e1eb" fill-rule="nonzero" node-id="117" stroke="none" target-height="75.29999" target-width="110.599976" target-x="466" target-y="878.7"></path><g node-id="180"><path d="M 118.80 704.90 L 254.40 704.90 L 241.90 786.30 L 242.10 789.30 L 243.00 792.10 L 244.40 794.70 L 246.30 797.00 L 248.60 798.90 L 251.20 800.30 L 254.00 801.10 L 257.00 801.40 L 489.70 801.40 L 492.20 801.20 L 496.70 799.60 L 500.60 796.70 L 502.20 794.80 L 504.80 786.30 L 505.00 651.90 L 548.90 566.20 L 555.20 558.40 L 561.10 550.30 L 566.70 542.00 L 576.80 524.70 L 581.30 515.70 L 585.30 506.50 L 591.90 488.60 L 594.70 479.50 L 599.30 461.00 L 602.30 442.10 L 603.20 432.70 L 604.00 413.60 L 603.70 402.30 L 603.00 391.20 L 601.70 380.30 L 600.00 369.60 L 597.80 359.10 L 595.10 348.70 L 591.90 338.40 L 588.40 328.40 L 584.40 318.70 L 580.00 309.10 L 575.10 299.70 L 569.90 290.70 L 564.40 281.80 L 558.40 273.30 L 552.10 265.00 L 545.40 257.00 L 538.40 249.30 L 531.00 241.90 L 523.40 234.90 L 515.40 228.20 L 507.20 221.80 L 498.60 215.80 L 489.90 210.20 L 480.80 204.90 L 471.40 200.10 L 461.90 195.60 L 452.20 191.60 L 442.20 188.00 L 432.00 184.80 L 421.50 182.10 L 411.00 179.80 L 400.30 178.00 L 389.50 176.70 L 378.40 175.90 L 367.10 175.60 L 355.20 175.90 L 343.50 176.70 L 331.80 178.10 L 320.30 180.10 L 308.90 182.60 L 297.60 185.70 L 286.60 189.30 L 275.70 193.50 L 265.10 198.20 L 254.70 203.40 L 244.50 209.10 L 234.60 215.30 L 225.00 222.00 L 215.80 229.20 L 206.80 236.80 L 198.20 245.00 L 190.00 253.60 L 182.30 262.50 L 175.10 271.80 L 168.30 281.30 L 162.10 291.20 L 156.30 301.40 L 151.10 311.70 L 146.40 322.40 L 142.20 333.20 L 138.50 344.30 L 135.40 355.50 L 132.80 366.90 L 130.80 378.40 L 129.40 390.10 L 128.50 401.80 L 127.70 422.40 L 124.20 466.20 L 112.10 603.10 L 104.10 686.50 L 104.90 691.10 L 106.10 695.00 L 108.10 698.40 L 111.60 701.70 L 113.40 702.90 L 117.10 704.60 L 118.80 704.90 Z" fill="#e0eaff" fill-rule="evenodd" group-id="1" node-id="120" stroke="none" target-height="625.80005" target-width="499.9" target-x="104.1" target-y="175.6"></path></g><path d="M 67.50 540.80 L 119.00 540.80 L 129.10 425.40 L 62.30 531.20 L 61.50 532.70 L 61.20 534.40 L 61.40 536.00 L 62.00 537.60 L 63.00 539.00 L 64.30 540.00 L 65.80 540.60 L 67.50 540.80 Z" fill="#204889" fill-rule="evenodd" node-id="123" stroke="none" target-height="115.399994" target-width="67.90001" target-x="61.2" target-y="425.4"></path><g node-id="181"><path d="M 485.30 463.80 L 485.00 455.60 L 484.20 447.60 L 482.80 439.90 L 481.00 432.30 L 478.70 424.90 L 475.90 417.70 L 472.70 410.70 L 469.10 404.00 L 465.00 397.60 L 460.60 391.40 L 455.80 385.60 L 450.60 380.10 L 445.00 374.90 L 439.20 370.10 L 433.10 365.60 L 426.60 361.60 L 419.90 357.90 L 413.00 354.70 L 405.80 352.00 L 398.30 349.60 L 390.80 347.80 L 383.00 346.50 L 375.00 345.70 L 366.90 345.40 L 358.70 345.70 L 350.70 346.50 L 342.90 347.80 L 335.40 349.60 L 327.90 352.00 L 320.70 354.70 L 313.80 357.90 L 307.10 361.60 L 300.60 365.60 L 294.50 370.10 L 288.70 374.90 L 283.10 380.10 L 277.90 385.60 L 273.10 391.40 L 268.70 397.60 L 264.60 404.00 L 261.00 410.70 L 257.80 417.70 L 255.00 424.90 L 252.70 432.30 L 250.90 439.90 L 249.50 447.60 L 248.70 455.60 L 248.50 463.80 L 248.70 472.00 L 249.50 480.00 L 250.90 487.70 L 252.70 495.30 L 255.00 502.70 L 257.80 509.90 L 261.00 516.90 L 264.60 523.60 L 268.70 530.00 L 273.10 536.20 L 277.90 542.00 L 283.10 547.50 L 288.70 552.70 L 294.50 557.50 L 300.60 562.00 L 307.10 566.00 L 313.80 569.70 L 320.70 572.90 L 327.90 575.60 L 335.40 578.00 L 342.90 579.80 L 350.70 581.10 L 358.70 581.90 L 366.90 582.20 L 374.70 581.90 L 382.40 581.20 L 390.10 579.90 L 397.60 578.10 L 405.00 575.90 L 412.20 573.20 L 419.20 570.00 L 426.00 566.40 L 432.50 562.30 L 438.80 557.80 L 444.80 552.90 L 450.60 547.50 L 455.90 541.80 L 460.90 535.80 L 465.40 529.50 L 469.40 522.90 L 473.10 516.10 L 476.20 509.10 L 478.90 501.90 L 481.20 494.50 L 483.00 487.00 L 484.20 479.40 L 485.00 471.70 L 485.30 463.80 Z" fill="#3b82f4" fill-rule="evenodd" group-id="2" node-id="126" stroke="none" target-height="236.80002" target-width="236.79999" target-x="248.5" target-y="345.4"></path></g><path d="M 458.40 464.00 L 458.00 456.40 L 457.10 449.00 L 455.70 441.80 L 453.70 434.90 L 451.10 428.10 L 448.10 421.60 L 444.60 415.50 L 440.60 409.60 L 436.20 404.00 L 431.40 398.90 L 426.20 394.10 L 420.60 389.70 L 414.80 385.70 L 408.60 382.20 L 402.10 379.20 L 395.40 376.60 L 388.40 374.60 L 381.30 373.10 L 373.90 372.20 L 366.20 371.90 L 358.60 372.20 L 351.20 373.10 L 344.10 374.60 L 337.10 376.60 L 330.40 379.20 L 323.90 382.20 L 317.70 385.70 L 311.90 389.70 L 306.30 394.10 L 301.10 398.90 L 296.30 404.00 L 291.90 409.60 L 287.90 415.50 L 284.40 421.60 L 281.40 428.10 L 278.80 434.90 L 276.80 441.80 L 275.40 449.00 L 274.50 456.40 L 274.20 464.00 L 274.50 471.60 L 275.40 479.00 L 276.80 486.20 L 278.80 493.10 L 281.40 499.90 L 284.40 506.40 L 287.90 512.50 L 291.90 518.40 L 296.30 524.00 L 301.10 529.10 L 306.30 533.90 L 311.90 538.30 L 317.70 542.30 L 323.90 545.80 L 330.40 548.80 L 337.10 551.40 L 344.10 553.40 L 351.20 554.90 L 358.60 555.80 L 366.20 556.10 L 372.40 555.90 L 384.30 554.30 L 390.20 553.00 L 401.50 549.10 L 412.30 543.80 L 417.40 540.60 L 426.90 533.30 L 431.40 529.10 L 435.60 524.70 L 442.90 515.10 L 446.10 510.00 L 451.40 499.30 L 455.20 487.90 L 456.60 482.10 L 458.10 470.10 L 458.40 464.00 Z" fill="#ffffff" fill-rule="evenodd" node-id="129" stroke="none" target-height="184.19998" target-width="184.19998" target-x="274.2" target-y="371.9"></path><path d="M 127.20 354.90 L 126.00 355.20 L 125.10 355.80 L 124.50 356.70 L 124.30 357.80 L 124.60 359.00 L 125.20 359.90 L 126.10 360.50 L 127.30 360.70 L 191.50 360.70 L 192.70 360.40 L 193.60 359.80 L 194.20 358.90 L 194.40 357.80 L 194.10 356.60 L 193.50 355.70 L 192.60 355.10 L 191.40 354.90 Z" fill="#74bff2" fill-rule="evenodd" node-id="131" stroke="none" target-height="5.8000183" target-width="70.09999" target-x="124.3" target-y="354.9"></path><path d="M 188.80 358.60 L 189.10 361.90 L 189.90 364.90 L 191.20 367.70 L 193.00 370.20 L 195.10 372.40 L 197.70 374.10 L 200.50 375.50 L 203.50 376.30 L 206.80 376.60 L 210.00 376.30 L 213.00 375.50 L 215.80 374.10 L 218.40 372.40 L 220.50 370.20 L 222.30 367.70 L 223.60 364.90 L 224.40 361.90 L 224.80 358.60 L 224.40 355.30 L 223.60 352.30 L 222.30 349.50 L 220.50 347.00 L 218.40 344.80 L 215.80 343.10 L 213.00 341.70 L 210.00 340.90 L 206.80 340.60 L 203.50 340.90 L 200.50 341.70 L 197.70 343.10 L 195.20 344.90 L 193.00 347.00 L 191.20 349.50 L 189.90 352.30 L 189.10 355.30 L 188.80 358.60 Z M 194.50 358.80 L 195.20 363.00 L 197.30 366.60 L 200.40 369.20 L 202.30 370.10 L 206.60 370.90 L 210.80 370.10 L 214.40 368.00 L 217.00 364.90 L 218.40 361.00 L 218.70 358.80 L 218.40 356.60 L 217.90 354.60 L 215.80 351.00 L 212.70 348.40 L 210.80 347.50 L 206.60 346.70 L 204.20 346.90 L 201.90 347.60 L 199.80 348.70 L 198.00 350.20 L 196.50 352.10 L 195.40 354.20 L 194.70 356.40 L 194.50 358.80 Z" fill="#74bff2" fill-rule="evenodd" node-id="133" stroke="none" target-height="36" target-width="36" target-x="188.8" target-y="340.6"></path><path d="M 107.00 595.90 L 105.90 596.20 L 105.00 596.80 L 104.40 597.70 L 104.20 598.80 L 104.40 599.90 L 105.00 600.90 L 106.00 601.50 L 107.10 601.70 L 171.40 601.70 L 172.50 601.40 L 173.40 600.80 L 174.00 599.90 L 174.20 598.80 L 174.00 597.70 L 173.40 596.70 L 172.40 596.10 L 171.30 595.90 Z" fill="#74bff2" fill-rule="evenodd" node-id="135" stroke="none" target-height="5.799988" target-width="70" target-x="104.2" target-y="595.9"></path><path d="M 166.90 598.30 L 167.20 601.60 L 168.00 604.60 L 169.30 607.40 L 171.10 609.90 L 173.20 612.10 L 175.80 613.80 L 178.60 615.20 L 181.60 616.00 L 184.90 616.30 L 188.10 616.00 L 191.10 615.20 L 193.90 613.80 L 196.50 612.10 L 198.60 609.90 L 200.40 607.40 L 201.70 604.60 L 202.50 601.60 L 202.80 598.30 L 202.50 595.00 L 201.70 592.00 L 200.40 589.20 L 198.60 586.70 L 196.50 584.50 L 193.90 582.80 L 191.10 581.40 L 188.10 580.60 L 184.90 580.30 L 181.60 580.60 L 178.60 581.40 L 175.80 582.80 L 173.30 584.60 L 171.10 586.70 L 169.30 589.20 L 168.00 592.00 L 167.20 595.00 L 166.90 598.30 Z M 172.80 598.30 L 173.50 602.50 L 175.60 606.10 L 178.70 608.70 L 180.60 609.60 L 184.90 610.40 L 189.10 609.60 L 192.70 607.50 L 195.30 604.40 L 196.20 602.50 L 197.00 598.30 L 196.20 594.10 L 194.10 590.50 L 191.00 587.90 L 189.10 587.00 L 184.90 586.20 L 182.50 586.40 L 180.20 587.10 L 178.10 588.20 L 176.30 589.70 L 174.70 591.60 L 173.60 593.70 L 173.00 595.90 L 172.80 598.30 Z" fill="#74bff2" fill-rule="evenodd" node-id="137" stroke="none" target-height="36" target-width="35.90001" target-x="166.9" target-y="580.3"></path><path d="M 513.90 301.80 L 512.70 302.10 L 511.90 302.70 L 511.30 303.60 L 511.10 304.70 L 511.30 305.80 L 511.90 306.80 L 512.80 307.40 L 514.00 307.60 L 578.40 307.60 L 579.50 307.30 L 580.30 306.70 L 580.90 305.80 L 581.20 304.70 L 580.90 303.60 L 580.30 302.60 L 579.40 302.00 L 578.30 301.80 Z" fill="#74bff2" fill-rule="evenodd" node-id="139" stroke="none" target-height="5.8000183" target-width="70.100006" target-x="511.1" target-y="301.8"></path><path d="M 481.20 305.70 L 481.50 309.00 L 482.30 312.00 L 483.60 314.80 L 485.40 317.30 L 487.50 319.50 L 490.10 321.20 L 492.90 322.60 L 495.90 323.40 L 499.20 323.70 L 502.40 323.40 L 505.40 322.60 L 508.20 321.20 L 510.80 319.50 L 512.90 317.30 L 514.70 314.80 L 516.00 312.00 L 516.80 309.00 L 517.20 305.70 L 516.80 302.40 L 516.00 299.40 L 514.70 296.60 L 512.90 294.10 L 510.80 291.90 L 508.20 290.20 L 505.40 288.80 L 502.40 288.00 L 499.20 287.70 L 495.90 288.00 L 492.90 288.80 L 490.10 290.20 L 487.60 292.00 L 485.40 294.10 L 483.60 296.60 L 482.30 299.40 L 481.50 302.40 L 481.20 305.70 Z M 487.10 305.70 L 487.80 309.90 L 489.90 313.50 L 493.00 316.10 L 494.90 317.00 L 499.20 317.80 L 503.40 317.00 L 505.30 316.10 L 508.40 313.50 L 510.50 309.90 L 511.20 305.70 L 510.50 301.50 L 508.40 297.90 L 505.30 295.30 L 503.40 294.40 L 499.20 293.60 L 496.80 293.80 L 494.50 294.50 L 492.40 295.60 L 490.50 297.10 L 489.00 298.90 L 487.90 301.00 L 487.20 303.30 L 487.10 305.70 Z" fill="#74bff2" fill-rule="evenodd" node-id="141" stroke="none" target-height="36" target-width="36" target-x="481.2" target-y="287.7"></path><g node-id="182"><path d="M 830.50 675.30 L 827.40 674.60 L 825.40 673.60 L 819.60 669.40 L 814.00 663.70 L 811.70 660.60 L 808.90 655.70 L 808.30 652.60 L 808.30 608.90 L 637.80 608.90 L 634.60 609.50 L 631.90 611.30 L 630.10 614.00 L 629.50 617.20 L 629.50 855.60 L 781.80 855.60 L 782.00 860.40 L 782.80 864.90 L 783.90 869.20 L 785.60 873.20 L 787.60 877.10 L 790.00 880.60 L 792.80 883.90 L 795.90 887.00 L 799.30 889.70 L 802.90 892.10 L 806.80 894.10 L 811.00 895.90 L 815.30 897.20 L 819.80 898.20 L 824.40 898.70 L 829.30 898.90 L 834.00 898.60 L 838.50 897.90 L 842.80 896.70 L 847.00 895.10 L 851.00 893.00 L 854.80 890.70 L 858.30 888.00 L 861.60 884.90 L 864.50 881.60 L 867.20 878.00 L 869.50 874.20 L 871.40 870.10 L 873.00 865.90 L 874.10 861.50 L 874.80 856.90 L 875.10 852.20 L 875.10 675.20 L 830.50 675.30 Z" fill="#3a3a77" fill-rule="evenodd" group-id="3" node-id="144" stroke="none" target-height="290" target-width="245.59998" target-x="629.5" target-y="608.9"></path></g><path d="M 607.40 854.80 L 608.10 863.10 L 610.30 870.60 L 612.50 875.30 L 615.20 879.60 L 618.40 883.50 L 622.00 887.00 L 626.10 890.10 L 630.60 892.80 L 635.30 895.00 L 640.40 896.70 L 645.80 897.90 L 653.50 898.50 L 828.60 898.20 L 823.80 898.00 L 819.20 897.30 L 814.80 896.20 L 810.50 894.80 L 806.40 892.90 L 802.50 890.80 L 795.60 885.50 L 792.50 882.40 L 789.90 879.00 L 787.50 875.50 L 785.60 871.70 L 784.00 867.70 L 782.90 863.60 L 782.30 859.40 L 782.20 854.90 L 607.40 854.80 Z" fill="#5d83ff" fill-rule="evenodd" node-id="147" stroke="none" target-height="43.700012" target-width="221.19995" target-x="607.4" target-y="854.8"></path><path d="M 666.40 675.90 L 704.50 675.90 L 705.70 675.70 L 706.80 675.00 L 707.40 673.90 L 707.70 672.70 L 707.70 634.60 L 707.40 633.40 L 706.80 632.30 L 705.70 631.60 L 704.50 631.40 L 666.40 631.40 L 665.10 631.60 L 664.10 632.30 L 663.40 633.40 L 663.20 634.60 L 663.20 672.70 L 663.40 673.90 L 664.00 675.00 L 665.10 675.70 L 666.40 675.90 Z" fill="#84d4fd" fill-rule="evenodd" node-id="149" stroke="none" target-height="44.5" target-width="44.5" target-x="663.2" target-y="631.4"></path><path d="M 664.60 709.00 L 738.60 709.00 L 739.10 708.80 L 739.60 708.00 L 740.10 705.70 L 739.90 699.70 L 739.10 697.90 L 738.60 697.70 L 664.60 697.70 L 664.00 697.90 L 663.50 698.60 L 663.00 700.90 L 663.10 706.80 L 663.90 708.80 L 664.60 709.00 Z" fill="#84d4fd" fill-rule="evenodd" node-id="151" stroke="none" target-height="11.299988" target-width="77.099976" target-x="663" target-y="697.7"></path><path d="M 666.20 742.60 L 827.10 742.60 L 828.30 742.30 L 829.40 741.60 L 830.10 740.60 L 830.40 739.30 L 830.40 734.60 L 830.10 733.30 L 829.40 732.30 L 828.30 731.60 L 827.10 731.30 L 666.20 731.30 L 664.90 731.50 L 663.90 732.20 L 663.20 733.30 L 663.00 734.50 L 663.20 740.40 L 663.90 741.50 L 664.90 742.30 L 666.20 742.60 Z" fill="#f0f2ff" fill-rule="evenodd" node-id="153" stroke="none" target-height="11.299988" target-width="167.40002" target-x="663" target-y="731.3"></path><path d="M 666.20 776.30 L 827.10 776.30 L 828.30 776.00 L 829.40 775.30 L 830.10 774.30 L 830.40 773.00 L 830.40 768.30 L 830.10 767.00 L 829.40 766.00 L 828.30 765.30 L 827.10 765.00 L 666.20 765.00 L 664.90 765.20 L 663.90 765.90 L 663.20 767.00 L 663.00 768.20 L 663.20 774.10 L 663.90 775.20 L 664.90 776.00 L 666.20 776.30 Z" fill="#f0f2ff" fill-rule="evenodd" node-id="155" stroke="none" target-height="11.299988" target-width="167.40002" target-x="663" target-y="765"></path><path d="M 808.20 673.30 L 808.40 675.10 L 809.10 676.80 L 810.30 678.30 L 811.40 679.10 L 814.00 680.10 L 875.10 675.70 L 808.00 664.50 L 808.20 673.30 Z" fill="#babfd8" fill-rule="evenodd" node-id="157" stroke="none" target-height="15.599976" target-width="67.099976" target-x="808" target-y="664.5"></path><path d="M 808.20 608.60 L 808.30 672.70 L 808.60 673.80 L 809.20 674.80 L 810.10 675.40 L 811.30 675.60 L 875.40 675.60 L 843.00 642.20 Z" fill="#ffc53d" fill-rule="evenodd" node-id="159" stroke="none" target-height="67" target-width="67.20001" target-x="808.2" target-y="608.6"></path><path d="M 368.00 852.70 L 336.40 852.70 L 334.50 853.00 L 332.80 853.70 L 331.30 854.80 L 330.20 856.30 L 329.50 858.00 L 329.20 859.90 L 329.20 891.30 L 329.50 893.20 L 330.20 894.90 L 331.30 896.40 L 332.80 897.50 L 334.50 898.20 L 336.40 898.50 L 368.00 898.50 L 369.90 898.20 L 371.60 897.50 L 373.10 896.40 L 374.20 894.90 L 374.90 893.20 L 375.20 891.30 L 375.20 860.10 L 375.00 858.10 L 374.20 856.40 L 373.10 854.90 L 371.70 853.80 L 369.90 853.00 L 368.00 852.70 Z" fill="#ff7946" fill-rule="evenodd" node-id="161" stroke="none" target-height="45.799988" target-width="46" target-x="329.2" target-y="852.7"></path><path d="M 632.30 37.60 L 605.60 37.60 L 602.50 38.50 L 600.30 40.60 L 599.50 43.70 L 599.50 70.40 L 600.30 73.50 L 602.50 75.60 L 603.90 76.20 L 605.60 76.50 L 632.30 76.50 L 635.30 75.60 L 637.50 73.50 L 638.40 70.40 L 638.40 43.70 L 638.10 42.10 L 637.50 40.60 L 636.50 39.40 L 633.90 37.90 L 632.30 37.60 Z" fill="#367cff" fill-rule="evenodd" node-id="163" stroke="none" target-height="38.9" target-width="38.900024" target-x="599.5" target-y="37.6"></path><path d="M 853.50 418.00 L 762.80 418.00 L 758.00 418.80 L 753.90 420.90 L 750.90 424.10 L 749.80 426.00 L 749.20 428.00 L 749.00 430.20 L 749.00 483.90 L 749.20 486.20 L 749.80 488.20 L 752.20 491.90 L 755.80 494.60 L 760.20 496.10 L 762.80 496.30 L 853.50 496.30 L 858.20 495.50 L 862.30 493.30 L 865.30 490.10 L 866.40 488.20 L 867.00 486.10 L 867.30 483.90 L 867.30 430.20 L 867.00 428.00 L 866.30 426.00 L 865.30 424.10 L 862.30 420.90 L 858.20 418.80 L 853.50 418.00 Z" fill="#e6f4ef" fill-rule="evenodd" node-id="165" stroke="none" target-height="78.29999" target-width="118.29999" target-x="749" target-y="418"></path><g node-id="183"><path d="M 178.10 817.60 L 180.80 817.40 L 183.40 816.70 L 185.80 815.50 L 188.00 813.70 L 189.60 811.80 L 190.90 809.70 L 191.70 807.50 L 192.20 805.10 L 192.20 802.80 L 191.80 800.40 L 191.10 798.10 L 189.90 796.00 L 188.40 794.00 L 186.40 792.30 L 184.30 791.10 L 182.10 790.20 L 179.80 789.80 L 177.40 789.70 L 175.00 790.10 L 172.80 790.90 L 170.60 792.00 L 168.70 793.60 L 166.90 795.60 L 165.60 797.90 L 164.80 800.40 L 164.60 800.20 L 163.50 805.50 L 160.90 813.30 L 157.00 820.60 L 152.50 826.20 L 149.80 828.70 L 146.70 830.90 L 143.10 832.90 L 139.30 834.30 L 134.90 835.30 L 129.90 835.70 L 130.10 836.10 L 127.50 836.30 L 125.20 836.90 L 123.00 837.90 L 119.40 840.90 L 116.90 844.90 L 116.20 847.20 L 115.80 849.70 L 116.20 852.10 L 117.90 856.30 L 120.90 859.70 L 124.90 862.00 L 129.50 862.90 L 134.10 862.20 L 138.20 860.20 L 141.30 856.90 L 143.30 852.80 L 143.80 850.40 L 143.60 847.60 L 145.70 840.70 L 148.70 835.20 L 151.10 832.20 L 153.70 829.40 L 157.10 826.70 L 164.60 822.20 L 172.90 819.00 L 178.10 817.60 Z" fill="#f3f7ff" fill-rule="evenodd" group-id="4" node-id="169" stroke="none" target-height="73.20001" target-width="76.399994" target-x="115.8" target-y="789.7"></path></g><path d="M 299.80 117.40 L 299.70 119.80 L 300.40 124.40 L 302.20 128.60 L 303.50 130.50 L 306.90 133.70 L 308.90 135.00 L 311.10 136.00 L 315.60 137.10 L 317.90 137.20 L 322.50 136.50 L 326.70 134.70 L 328.70 133.30 L 330.40 131.70 L 333.20 127.90 L 334.80 123.60 L 335.30 121.30 L 335.20 116.70 L 334.70 114.40 L 333.80 112.10 L 331.40 108.10 L 329.80 106.40 L 326.10 103.70 L 321.80 102.00 L 319.50 101.60 L 317.10 101.50 L 312.50 102.20 L 308.30 104.10 L 306.30 105.40 L 304.60 107.00 L 301.80 110.80 L 300.20 115.10 L 299.80 117.40 Z" fill="#ff7946" fill-rule="evenodd" node-id="172" stroke="none" target-height="35.699997" target-width="35.599976" target-x="299.7" target-y="101.5"></path><path d="M 389.80 464.00 L 389.60 460.80 L 389.00 457.70 L 388.00 454.90 L 386.60 452.10 L 383.00 447.40 L 378.20 443.70 L 375.50 442.30 L 372.60 441.30 L 369.60 440.70 L 366.40 440.50 L 363.10 440.70 L 360.10 441.30 L 357.20 442.30 L 352.00 445.40 L 347.70 449.60 L 346.10 452.10 L 343.70 457.70 L 343.10 460.80 L 342.90 464.00 L 343.10 467.20 L 343.70 470.30 L 344.70 473.10 L 347.70 478.40 L 352.00 482.60 L 357.20 485.70 L 360.10 486.70 L 363.10 487.30 L 366.40 487.50 L 369.60 487.30 L 372.60 486.60 L 375.50 485.60 L 378.20 484.30 L 382.90 480.60 L 386.60 475.90 L 388.00 473.10 L 389.00 470.30 L 389.60 467.20 L 389.80 464.00 Z M 330.00 417.10 L 328.70 418.80 L 327.90 420.70 L 327.60 422.70 L 328.80 429.00 L 328.90 431.50 L 328.20 436.30 L 326.40 440.80 L 323.50 444.60 L 319.80 447.60 L 317.70 448.70 L 311.70 450.80 L 310.10 452.10 L 308.90 453.70 L 308.10 455.70 L 307.70 461.20 L 308.10 472.30 L 308.80 474.30 L 310.00 475.90 L 311.70 477.20 L 317.70 479.30 L 321.70 481.70 L 325.10 485.20 L 327.50 489.40 L 328.30 491.70 L 329.00 496.50 L 328.80 499.00 L 327.60 505.30 L 327.90 507.40 L 328.70 509.40 L 330.00 510.90 L 336.80 515.30 L 344.20 519.00 L 346.30 519.30 L 348.30 519.10 L 350.20 518.40 L 355.80 513.80 L 358.70 512.30 L 361.70 511.20 L 364.80 510.70 L 367.90 510.70 L 371.00 511.20 L 374.00 512.30 L 376.90 513.80 L 382.40 518.40 L 384.40 519.20 L 387.20 519.30 L 392.30 517.30 L 399.40 513.20 L 402.70 510.90 L 404.00 509.20 L 404.80 507.30 L 405.10 505.30 L 403.90 499.00 L 403.80 496.60 L 404.50 491.90 L 406.30 487.40 L 409.20 483.60 L 412.90 480.60 L 415.00 479.50 L 421.10 477.30 L 422.70 476.00 L 423.90 474.30 L 424.60 472.30 L 425.00 466.80 L 424.60 455.70 L 423.80 453.80 L 422.60 452.10 L 421.00 450.80 L 415.00 448.70 L 411.00 446.20 L 407.70 442.80 L 405.20 438.60 L 404.50 436.30 L 403.80 431.50 L 403.90 429.00 L 405.10 422.70 L 404.80 420.60 L 404.00 418.60 L 402.70 417.10 L 395.90 412.70 L 388.50 409.00 L 386.40 408.70 L 384.40 408.90 L 382.50 409.60 L 380.80 410.80 L 377.60 413.80 L 373.40 416.10 L 368.80 417.30 L 366.40 417.40 L 363.90 417.30 L 359.30 416.10 L 355.10 413.70 L 350.30 409.40 L 348.30 408.70 L 345.50 408.50 L 340.40 410.50 L 333.30 414.70 L 330.00 417.10 Z" fill="#8ec8ef" fill-rule="evenodd" node-id="174" stroke="none" target-height="110.79999" target-width="117.29999" target-x="307.7" target-y="408.5"></path><path d="M 218.00 175.50 L 91.30 175.50 L 88.10 175.20 L 85.10 174.30 L 82.30 172.80 L 79.90 170.80 L 77.80 168.30 L 76.40 165.60 L 75.50 162.60 L 75.20 159.40 L 75.20 83.40 L 75.50 80.20 L 76.40 77.20 L 77.80 74.50 L 79.90 72.00 L 82.30 70.00 L 85.10 68.50 L 88.10 67.60 L 91.30 67.30 L 218.00 67.30 L 221.20 67.60 L 224.20 68.50 L 226.90 70.00 L 229.40 72.00 L 231.40 74.50 L 232.90 77.20 L 233.80 80.20 L 234.10 83.40 L 234.10 159.50 L 233.80 162.40 L 233.10 165.10 L 231.90 167.60 L 230.30 169.80 L 228.40 171.70 L 226.10 173.30 L 223.60 174.50 L 220.90 175.20 L 218.00 175.50 Z" fill="#d2e1eb" fill-rule="nonzero" node-id="176" stroke="none" target-height="108.2" target-width="158.90001" target-x="75.2" target-y="67.3"></path><path d="M 210.50 986.40 L 98.50 986.40 L 93.90 985.60 L 90.10 983.30 L 87.30 980.00 L 86.40 978.00 L 85.60 973.50 L 85.60 905.50 L 86.40 901.00 L 88.60 897.20 L 91.90 894.40 L 96.10 892.80 L 98.50 892.60 L 210.50 892.60 L 215.00 893.40 L 218.80 895.70 L 221.60 899.00 L 222.50 901.00 L 223.40 905.50 L 223.40 973.50 L 222.50 978.00 L 220.30 981.80 L 217.00 984.60 L 215.00 985.60 L 210.50 986.40 Z" fill="#e4edf3" fill-rule="nonzero" node-id="178" stroke="none" target-height="93.80005" target-width="137.79999" target-x="85.6" target-y="892.6"></path></svg>