<?xml version="1.0" standalone="no"?><!DOCTYPE svg PUBLIC "-//W3C//DTD SVG 1.1//EN" "http://www.w3.org/Graphics/SVG/1.1/DTD/svg11.dtd"><svg height="1024" node-id="1" sillyvg="true" template-height="1024" template-width="1024" version="1.1" viewBox="0 0 1024 1024" width="1024" xmlns="http://www.w3.org/2000/svg" xmlns:xlink="http://www.w3.org/1999/xlink"><defs node-id="276"><clipPath id="master_svg0_4_82" node-id="3"><path d="M 0.00 0.00 L 1024.00 0.00 L 1024.00 1024.00 L 0.00 1024.00 Z" fill="#000000" fill-rule="nonzero" node-id="279" stroke="none" target-height="1024" target-width="1024" target-x="0" target-y="0"></path></clipPath></defs><g node-id="956"><g clip-path="url(#master_svg0_4_82)" group-id="1" id="sillyvg_g_1" node-id="285"><path d="M 103.40 178.30 L 329.70 178.30 L 333.40 178.60 L 336.90 179.60 L 340.10 181.10 L 342.90 183.10 L 345.40 185.60 L 347.40 188.40 L 348.90 191.60 L 349.90 195.10 L 350.20 198.80 L 350.20 372.30 L 349.90 376.00 L 348.90 379.50 L 347.40 382.70 L 345.40 385.50 L 342.90 388.00 L 340.10 390.00 L 336.90 391.50 L 333.40 392.50 L 329.70 392.80 L 103.40 392.80 L 99.70 392.50 L 96.20 391.50 L 93.00 390.00 L 90.20 388.00 L 87.70 385.50 L 85.70 382.70 L 84.20 379.50 L 83.20 376.00 L 82.90 372.30 L 82.90 198.80 L 83.20 195.00 L 84.20 191.60 L 85.70 188.40 L 87.70 185.50 L 90.10 183.10 L 93.00 181.10 L 96.20 179.60 L 99.60 178.60 L 103.40 178.30 Z" fill="#3541df" fill-rule="nonzero" group-id="1,2" node-id="289" stroke="none" target-height="214.49998" target-width="267.30002" target-x="82.9" target-y="178.3"></path><path d="M 330.70 388.40 L 104.70 388.40 L 101.20 388.00 L 97.80 387.20 L 93.60 384.60 L 92.00 383.00 L 89.60 379.20 L 88.00 373.60 L 87.80 370.10 L 87.90 197.10 L 88.40 194.30 L 89.40 191.40 L 91.00 188.80 L 93.00 186.50 L 95.40 184.60 L 97.30 183.60 L 102.40 182.40 L 328.30 182.40 L 331.40 182.60 L 334.20 183.30 L 336.80 184.50 L 339.20 186.10 L 341.20 188.00 L 342.90 190.30 L 344.20 192.90 L 345.00 195.70 L 345.40 198.70 L 345.40 371.90 L 345.20 374.80 L 344.60 377.50 L 343.50 379.90 L 341.90 382.20 L 340.10 384.10 L 337.90 385.70 L 335.50 386.90 L 332.90 387.70 L 328.10 388.30 L 327.00 388.80 L 325.30 390.60 L 324.60 393.00 L 325.50 395.30 L 326.40 395.90 L 328.00 396.60 L 329.80 396.80 L 333.30 396.50 L 336.50 395.70 L 339.60 394.60 L 342.50 393.00 L 345.20 391.20 L 349.70 386.60 L 351.50 383.90 L 353.00 380.90 L 354.10 377.80 L 354.80 374.60 L 355.10 371.10 L 355.10 198.00 L 354.80 194.70 L 354.10 191.50 L 353.00 188.60 L 351.50 185.80 L 347.70 180.90 L 342.80 177.20 L 340.00 175.70 L 337.10 174.70 L 333.90 174.00 L 330.60 173.70 L 105.70 173.70 L 101.20 174.00 L 97.00 174.80 L 93.00 176.10 L 90.20 177.50 L 87.50 179.30 L 85.10 181.50 L 82.80 184.10 L 81.00 187.00 L 79.70 189.90 L 78.80 192.80 L 78.00 197.40 L 77.80 202.20 L 77.90 373.70 L 79.10 379.70 L 80.30 382.60 L 81.80 385.20 L 85.70 390.00 L 88.20 392.00 L 91.10 393.70 L 94.10 395.00 L 97.30 395.90 L 102.20 396.50 L 107.20 396.70 L 328.50 396.60 L 330.40 396.40 L 332.10 395.70 L 333.40 394.50 L 334.30 392.80 L 334.30 391.20 L 333.80 389.80 L 332.70 388.70 L 331.30 388.00 L 330.70 388.40 Z" fill="#3541df" fill-rule="nonzero" group-id="1,3" node-id="294" stroke="none" target-height="223.09999" target-width="277.3" target-x="77.8" target-y="173.7"></path><path d="M 106.80 249.40 L 115.20 249.40 L 115.20 256.00 L 106.80 256.00 Z" fill="#ffffff" fill-rule="nonzero" group-id="1,4" node-id="299" stroke="none" target-height="6.600006" target-width="8.399994" target-x="106.8" target-y="249.4"></path><path d="M 135.90 249.20 L 205.70 249.20 L 205.70 255.80 L 135.90 255.80 Z" fill="#ffffff" fill-rule="nonzero" group-id="1,5" node-id="304" stroke="none" target-height="6.600006" target-width="69.8" target-x="135.9" target-y="249.2"></path><path d="M 226.70 248.60 L 248.20 248.60 L 248.20 255.20 L 226.70 255.20 Z" fill="#111111" fill-rule="nonzero" group-id="1,6" node-id="309" stroke="none" target-height="6.599991" target-width="21.5" target-x="226.7" target-y="248.6"></path><path d="M 264.60 249.40 L 302.70 248.60 L 302.80 255.20 L 264.70 256.00 Z" fill="#ffffff" fill-rule="nonzero" group-id="1,7" node-id="314" stroke="none" target-height="7.399994" target-width="38.19998" target-x="264.6" target-y="248.6"></path><path d="M 106.80 268.80 L 115.20 268.80 L 115.20 275.40 L 106.80 275.40 Z" fill="#ffffff" fill-rule="nonzero" group-id="1,8" node-id="319" stroke="none" target-height="6.600006" target-width="8.399994" target-x="106.8" target-y="268.8"></path><path d="M 136.10 268.60 L 179.80 268.60 L 179.80 275.20 L 136.10 275.20 Z" fill="#111111" fill-rule="nonzero" group-id="1,9" node-id="324" stroke="none" target-height="6.600006" target-width="43.699997" target-x="136.1" target-y="268.6"></path><path d="M 192.70 268.00 L 206.30 268.00 L 206.30 274.60 L 192.70 274.60 Z" fill="#ffffff" fill-rule="nonzero" group-id="1,10" node-id="329" stroke="none" target-height="6.600006" target-width="13.600006" target-x="192.7" target-y="268"></path><path d="M 216.60 268.60 L 269.20 267.70 L 269.30 274.30 L 216.70 275.20 Z" fill="#ffffff" fill-rule="nonzero" group-id="1,11" node-id="334" stroke="none" target-height="7.5" target-width="52.69998" target-x="216.6" target-y="267.7"></path><path d="M 106.80 289.50 L 115.20 289.50 L 115.20 296.10 L 106.80 296.10 Z" fill="#ffffff" fill-rule="nonzero" group-id="1,12" node-id="339" stroke="none" target-height="6.600006" target-width="8.399994" target-x="106.8" target-y="289.5"></path><path d="M 136.10 289.30 L 183.00 289.30 L 183.00 295.90 L 136.10 295.90 Z" fill="#ffffff" fill-rule="nonzero" group-id="1,13" node-id="344" stroke="none" target-height="6.600006" target-width="46.899994" target-x="136.1" target-y="289.3"></path><path d="M 196.90 288.70 L 211.50 288.70 L 211.50 295.30 L 196.90 295.30 Z" fill="#111111" fill-rule="nonzero" group-id="1,14" node-id="349" stroke="none" target-height="6.5999756" target-width="14.600006" target-x="196.9" target-y="288.7"></path><path d="M 222.60 289.30 L 248.30 288.60 L 248.50 295.20 L 222.80 295.90 Z" fill="#ffffff" fill-rule="nonzero" group-id="1,15" node-id="354" stroke="none" target-height="7.299988" target-width="25.899994" target-x="222.6" target-y="288.6"></path><path d="M 107.00 308.90 L 115.40 308.90 L 115.40 315.50 L 107.00 315.50 Z" fill="#ffffff" fill-rule="nonzero" group-id="1,16" node-id="359" stroke="none" target-height="6.600006" target-width="8.400002" target-x="107" target-y="308.9"></path><path d="M 136.10 308.70 L 190.30 308.70 L 190.30 315.30 L 136.10 315.30 Z" fill="#111111" fill-rule="nonzero" group-id="1,17" node-id="364" stroke="none" target-height="6.5999756" target-width="54.199997" target-x="136.1" target-y="308.7"></path><path d="M 206.50 308.10 L 223.20 308.10 L 223.20 314.70 L 206.50 314.70 Z" fill="#ffffff" fill-rule="nonzero" group-id="1,18" node-id="369" stroke="none" target-height="6.600006" target-width="16.699997" target-x="206.5" target-y="308.1"></path><path d="M 186.50 341.00 L 194.90 341.00 L 194.90 347.60 L 186.50 347.60 Z" fill="#ffffff" fill-rule="nonzero" group-id="1,19" node-id="374" stroke="none" target-height="6.600006" target-width="8.399994" target-x="186.5" target-y="341"></path><path d="M 215.80 341.00 L 262.70 341.00 L 262.70 347.60 L 215.80 347.60 Z" fill="#111111" fill-rule="nonzero" group-id="1,20" node-id="379" stroke="none" target-height="6.600006" target-width="46.90001" target-x="215.8" target-y="341"></path><path d="M 276.60 340.20 L 291.20 340.20 L 291.20 346.80 L 276.60 346.80 Z" fill="#ffffff" fill-rule="nonzero" group-id="1,21" node-id="384" stroke="none" target-height="6.5999756" target-width="14.600006" target-x="276.6" target-y="340.2"></path><path d="M 302.30 340.90 L 328.00 340.20 L 328.20 346.80 L 302.50 347.50 Z" fill="#ffffff" fill-rule="nonzero" group-id="1,22" node-id="389" stroke="none" target-height="7.299988" target-width="25.900024" target-x="302.3" target-y="340.2"></path><path d="M 186.50 360.30 L 194.90 360.30 L 194.90 366.90 L 186.50 366.90 Z" fill="#ffffff" fill-rule="nonzero" group-id="1,23" node-id="394" stroke="none" target-height="6.600006" target-width="8.399994" target-x="186.5" target-y="360.3"></path><path d="M 215.90 360.30 L 270.10 360.30 L 270.10 366.90 L 215.90 366.90 Z" fill="#ffffff" fill-rule="nonzero" group-id="1,24" node-id="399" stroke="none" target-height="6.600006" target-width="54.200012" target-x="215.9" target-y="360.3"></path><path d="M 286.30 359.50 L 303.00 359.50 L 303.00 366.10 L 286.30 366.10 Z" fill="#111111" fill-rule="nonzero" group-id="1,25" node-id="404" stroke="none" target-height="6.600006" target-width="16.700012" target-x="286.3" target-y="359.5"></path><path d="M 116.80 206.40 L 105.80 215.80 L 105.20 216.40 L 105.10 217.40 L 108.30 221.10 L 111.40 223.90 L 114.80 226.20 L 120.10 228.90 L 123.60 229.20 L 125.40 228.80 L 126.80 227.90 L 127.00 227.40 L 126.50 226.40 L 119.40 221.80 L 116.50 219.30 L 114.00 216.40 L 113.80 218.60 L 124.80 209.20 L 125.50 208.50 L 125.40 207.60 L 124.50 206.60 L 121.30 205.60 L 119.40 205.40 L 116.80 206.40 Z" fill="#111111" fill-rule="nonzero" group-id="1,26" node-id="409" stroke="none" target-height="23.800003" target-width="21.900002" target-x="105.1" target-y="205.4"></path><path d="M 145.70 204.40 L 141.20 212.40 L 137.20 220.70 L 133.70 229.30 L 133.70 230.60 L 134.10 231.90 L 134.90 232.90 L 136.10 233.50 L 139.00 233.60 L 140.70 232.90 L 142.10 231.70 L 143.10 230.10 L 148.50 217.10 L 154.60 205.70 L 154.70 204.40 L 154.20 203.30 L 153.30 202.30 L 152.30 201.90 L 150.40 201.80 L 148.60 202.20 L 147.00 203.10 L 145.70 204.40 Z" fill="#111111" fill-rule="nonzero" group-id="1,27" node-id="414" stroke="none" target-height="31.800003" target-width="21" target-x="133.7" target-y="201.8"></path><path d="M 158.80 211.40 L 168.20 219.60 L 160.20 229.80 L 159.80 230.60 L 160.50 231.00 L 162.60 230.80 L 164.80 230.10 L 166.80 228.90 L 168.60 227.40 L 176.90 216.90 L 177.10 215.50 L 176.80 214.90 L 166.60 206.80 L 164.60 207.20 L 159.90 209.10 L 158.70 210.10 L 158.50 210.80 L 158.80 211.40 Z" fill="#111111" fill-rule="nonzero" group-id="1,28" node-id="419" stroke="none" target-height="24.199997" target-width="18.600006" target-x="158.5" target-y="206.8"></path><path d="M 332.10 194.80 L 331.80 196.20 L 331.00 197.30 L 329.90 198.10 L 328.50 198.40 L 327.10 198.10 L 326.00 197.30 L 325.20 196.20 L 324.90 194.80 L 325.20 193.40 L 326.00 192.30 L 327.10 191.50 L 328.50 191.20 L 329.90 191.50 L 331.00 192.30 L 331.80 193.40 L 332.10 194.80 Z" fill="#111111" fill-rule="nonzero" group-id="1,29" node-id="424" stroke="none" target-height="7.199997" target-width="7.200012" target-x="324.9" target-y="191.2"></path><path d="M 327.30 195.60 L 327.10 197.00 L 327.30 196.20 L 326.70 197.00 L 327.30 196.20 L 326.70 196.80 L 327.90 196.00 L 331.10 195.60 L 330.30 195.40 L 331.10 195.60 L 330.10 195.20 L 330.70 195.60 L 329.70 194.40 L 330.10 195.00 L 329.70 193.40 L 329.70 194.20 L 329.90 192.60 L 329.50 193.40 L 330.10 192.80 L 329.30 193.60 L 329.90 193.20 L 328.90 193.80 L 327.30 194.20 L 326.30 194.00 L 327.30 194.40 L 326.70 194.00 L 327.70 195.20 L 327.30 194.60 L 327.70 196.20 L 327.70 195.20 L 327.20 196.00 L 328.30 197.40 L 329.90 197.70 L 333.40 197.10 L 335.10 196.20 L 336.40 194.70 L 336.70 193.80 L 336.50 192.00 L 335.30 189.90 L 333.30 188.60 L 330.30 188.00 L 328.50 188.20 L 325.00 189.20 L 321.90 191.60 L 320.70 193.20 L 320.10 195.00 L 320.30 196.80 L 321.40 198.90 L 323.50 200.20 L 325.20 200.70 L 326.90 200.80 L 330.70 200.20 L 334.10 198.60 L 335.30 197.60 L 336.80 195.20 L 337.20 193.30 L 336.90 192.80 L 336.10 192.00 L 334.50 191.60 L 331.00 192.30 L 329.30 193.20 L 327.70 194.60 L 327.30 195.60 Z" fill="#111111" fill-rule="nonzero" group-id="1,30" node-id="429" stroke="none" target-height="12.800003" target-width="17.100006" target-x="320.1" target-y="188"></path><path d="M 446.30 66.00 L 440.90 65.90 L 435.50 66.30 L 430.20 67.30 L 425.00 68.80 L 419.90 70.80 L 415.10 73.30 L 410.60 76.20 L 406.40 79.60 L 402.60 83.50 L 400.10 86.60 L 395.90 93.50 L 393.20 100.70 L 392.10 107.90 L 392.20 111.60 L 392.80 115.10 L 393.80 118.50 L 396.40 123.10 L 398.20 125.10 L 400.30 127.00 L 402.90 128.60 L 405.70 129.90 L 408.80 130.90 L 412.00 131.50 L 415.10 131.60 L 418.30 131.30 L 421.30 130.50 L 424.10 129.10 L 426.60 127.20 L 428.30 125.30 L 429.50 123.10 L 430.20 119.90 L 429.70 116.70 L 429.00 115.20 L 427.80 113.80 L 425.60 112.10 L 423.00 110.80 L 420.10 109.90 L 414.20 109.40 L 411.50 109.60 L 407.90 110.40 L 404.50 111.70 L 401.40 113.40 L 398.50 115.50 L 395.90 118.00 L 393.70 120.80 L 391.80 123.80 L 390.40 127.10 L 389.40 130.70 L 388.70 134.90 L 388.60 139.10 L 388.80 143.20 L 390.50 151.40 L 394.10 161.20 L 405.80 184.20 L 410.70 196.10 L 412.60 202.50 L 414.00 209.10 L 415.00 216.00 L 415.30 220.60 L 414.80 229.60 L 413.90 234.00 L 412.50 238.30 L 410.60 242.40 L 408.70 245.30 L 406.10 248.20 L 403.10 250.80 L 399.80 252.80 L 395.00 254.50 L 392.60 254.80 L 390.20 254.60 L 387.80 254.00 L 383.90 251.90 L 382.20 251.50 L 380.40 251.60 L 378.70 252.20 L 377.90 253.00 L 377.60 254.60 L 378.20 255.80 L 379.30 256.80 L 385.20 259.80 L 391.60 261.20 L 398.00 261.10 L 404.40 259.40 L 410.30 256.30 L 415.30 252.00 L 419.30 246.80 L 420.80 243.90 L 422.70 239.30 L 423.90 234.50 L 424.70 229.00 L 425.00 223.50 L 424.80 218.00 L 424.10 212.40 L 421.90 201.60 L 420.10 195.80 L 415.60 184.80 L 404.90 163.60 L 402.50 158.30 L 400.50 152.80 L 399.10 147.20 L 398.50 143.40 L 398.40 139.50 L 398.70 135.60 L 399.30 132.70 L 401.40 126.90 L 403.00 124.30 L 404.90 121.90 L 407.10 119.80 L 409.50 118.10 L 412.20 116.90 L 415.20 116.10 L 417.60 116.00 L 420.60 116.60 L 420.40 116.30 L 420.80 117.10 L 420.60 118.90 L 420.00 120.50 L 418.60 122.30 L 416.70 123.50 L 414.70 124.30 L 412.40 124.50 L 410.40 124.30 L 408.50 123.60 L 406.80 122.50 L 405.40 121.10 L 404.20 119.10 L 403.20 117.00 L 402.10 112.50 L 402.20 107.90 L 402.80 103.90 L 403.90 100.10 L 405.30 96.50 L 407.20 93.00 L 412.00 86.70 L 417.90 81.30 L 422.40 78.30 L 427.10 75.80 L 432.10 73.90 L 436.00 72.90 L 443.80 71.90 L 448.60 72.00 L 450.70 71.50 L 451.40 70.90 L 452.00 70.20 L 452.10 69.20 L 451.70 68.20 L 450.90 67.40 L 448.60 66.30 L 446.30 66.00 Z" fill="#3541df" fill-rule="nonzero" group-id="1,31" node-id="434" stroke="none" target-height="195.30002" target-width="74.5" target-x="377.6" target-y="65.9"></path><path d="M 448.70 488.30 L 724.70 488.30 L 724.70 806.90 L 448.70 806.90 Z" fill="#ffffff" fill-rule="nonzero" group-id="1,32" node-id="439" stroke="none" target-height="318.60004" target-width="276" target-x="448.7" target-y="488.3"></path><path d="M 448.70 807.70 L 724.70 807.70 L 725.50 807.40 L 725.80 806.60 L 725.80 488.30 L 725.20 487.30 L 448.70 487.20 L 447.90 487.50 L 447.60 488.30 L 447.60 806.90 L 448.00 807.50 L 448.70 807.70 Z M 723.70 805.60 L 449.80 805.60 L 449.80 489.30 L 723.70 489.30 L 723.70 805.60 Z" fill="#111111" fill-rule="nonzero" group-id="1,33" node-id="444" stroke="none" target-height="320.5" target-width="278.19998" target-x="447.6" target-y="487.2"></path><path d="M 623.10 948.90 L 636.80 942.40 L 651.10 936.50 L 665.90 931.10 L 681.40 926.40 L 697.50 922.20 L 714.20 918.70 L 731.60 915.80 L 749.80 913.50 L 768.70 911.90 L 788.40 911.10 L 809.00 910.90 L 839.80 911.50 L 864.70 912.60 L 884.40 914.10 L 899.80 915.80 L 911.50 917.80 L 920.20 919.80 L 926.50 921.80 L 930.80 923.80 L 933.70 925.70 L 891.40 892.40 L 684.80 861.70 L 611.30 892.40 L 623.10 948.90 Z" fill="#3541df" fill-rule="nonzero" group-id="1,34" node-id="449" stroke="none" target-height="87.20001" target-width="322.40002" target-x="611.3" target-y="861.7"></path><path d="M 623.10 950.00 L 636.80 944.00 L 647.60 939.80 L 659.70 935.60 L 685.90 927.70 L 711.30 921.70 L 724.70 919.10 L 739.20 916.80 L 766.50 913.60 L 791.30 912.20 L 808.80 912.00 L 834.10 912.50 L 854.40 913.40 L 873.00 914.70 L 887.40 916.20 L 900.50 917.90 L 909.90 919.60 L 923.70 922.90 L 928.30 924.40 L 933.50 926.90 L 934.30 926.60 L 934.60 925.80 L 934.10 924.90 L 891.80 891.20 L 684.60 860.70 L 611.10 891.40 L 610.70 891.80 L 610.50 892.70 L 622.00 949.20 L 622.60 950.10 L 623.10 950.00 Z M 804.70 909.80 L 788.40 910.10 L 772.80 910.90 L 758.10 912.20 L 743.30 914.00 L 729.50 916.10 L 716.60 918.50 L 692.10 923.90 L 666.10 931.30 L 642.20 939.70 L 623.90 947.40 L 612.70 893.00 L 685.20 863.00 L 891.10 893.50 L 926.40 921.40 L 921.20 919.80 L 913.00 917.90 L 903.60 916.20 L 890.40 914.40 L 875.80 912.80 L 856.50 911.50 L 835.50 910.50 L 804.70 909.80 Z" fill="#111111" fill-rule="nonzero" group-id="1,35" node-id="454" stroke="none" target-height="89.39996" target-width="324.09998" target-x="610.5" target-y="860.7"></path><path d="M 623.10 948.90 L 613.80 943.80 L 603.20 938.80 L 591.20 933.90 L 577.50 929.20 L 562.10 924.70 L 544.80 920.50 L 525.40 916.50 L 503.80 912.80 L 487.40 910.60 L 469.70 909.00 L 450.90 908.00 L 430.70 907.70 L 409.10 908.00 L 386.00 909.10 L 361.40 911.10 L 335.10 913.80 L 307.10 917.50 L 327.70 887.00 L 605.90 872.80 L 623.10 933.40 L 623.10 948.90 Z" fill="#3541df" fill-rule="nonzero" group-id="1,36" node-id="459" stroke="none" target-height="76.10004" target-width="315.99997" target-x="307.1" target-y="872.8"></path><path d="M 623.10 950.00 L 623.90 949.40 L 623.90 933.20 L 606.70 872.60 L 606.30 872.00 L 605.60 871.70 L 327.50 886.00 L 326.60 886.40 L 306.00 916.90 L 306.00 918.00 L 306.50 918.40 L 327.30 915.90 L 361.90 912.60 L 391.30 910.60 L 407.30 909.90 L 440.00 909.40 L 456.50 909.70 L 483.50 911.30 L 503.60 913.70 L 519.30 916.30 L 533.30 919.10 L 558.60 925.20 L 579.10 931.30 L 592.80 936.10 L 611.90 944.10 L 622.50 949.40 L 623.10 950.00 Z M 622.00 933.70 L 622.00 947.00 L 609.80 941.10 L 600.00 937.00 L 586.00 931.70 L 564.40 924.80 L 550.70 921.10 L 537.00 917.90 L 521.50 914.70 L 504.00 911.70 L 482.70 909.20 L 471.40 908.40 L 454.30 907.60 L 436.80 907.40 L 402.50 908.10 L 385.80 908.90 L 355.60 911.10 L 309.50 916.00 L 328.40 888.10 L 605.30 873.90 L 622.00 933.70 Z" fill="#111111" fill-rule="nonzero" group-id="1,37" node-id="464" stroke="none" target-height="78.29999" target-width="317.90002" target-x="306" target-y="871.7"></path><path d="M 623.10 933.50 L 636.20 927.30 L 649.90 921.60 L 664.30 916.40 L 679.40 911.80 L 695.30 907.70 L 711.90 904.10 L 729.40 901.10 L 747.70 898.60 L 766.90 896.80 L 787.10 895.70 L 808.70 895.20 L 828.80 895.30 L 847.70 896.10 L 865.30 897.40 L 881.70 899.20 L 897.00 901.60 L 911.20 904.40 L 924.50 907.70 L 873.30 871.40 L 677.70 866.90 L 618.40 903.90 L 623.10 933.50 Z" fill="#3541df" fill-rule="nonzero" group-id="1,38" node-id="469" stroke="none" target-height="66.599976" target-width="306.09998" target-x="618.4" target-y="866.9"></path><path d="M 623.10 934.50 L 635.40 929.20 L 655.90 921.40 L 669.80 916.90 L 690.40 911.10 L 714.70 905.50 L 727.80 903.00 L 742.00 900.80 L 756.20 899.00 L 771.20 897.60 L 787.10 896.70 L 803.30 896.30 L 818.30 896.30 L 846.20 897.40 L 870.00 899.50 L 886.20 901.50 L 910.20 905.50 L 924.20 908.50 L 925.00 908.50 L 925.50 907.90 L 925.10 906.60 L 873.10 870.30 L 677.50 865.80 L 617.20 903.50 L 621.90 933.80 L 622.50 934.70 L 623.10 934.50 Z M 809.60 893.90 L 787.20 894.30 L 772.40 895.10 L 758.40 896.30 L 745.10 897.90 L 719.40 902.10 L 707.80 904.50 L 690.90 908.50 L 676.20 912.50 L 662.30 916.80 L 640.80 924.50 L 624.00 931.70 L 619.70 904.20 L 678.20 867.90 L 873.00 872.40 L 919.40 905.30 L 892.20 900.20 L 864.80 896.60 L 837.30 894.50 L 809.60 893.90 Z" fill="#111111" fill-rule="nonzero" group-id="1,39" node-id="474" stroke="none" target-height="68.900024" target-width="308.3" target-x="617.2" target-y="865.8"></path><path d="M 621.10 919.90 L 623.00 933.40 L 594.30 923.40 L 568.10 914.90 L 544.20 907.80 L 522.50 902.00 L 502.90 897.40 L 485.10 893.80 L 469.10 891.10 L 454.70 889.30 L 441.80 888.30 L 430.20 888.00 L 414.00 888.30 L 397.90 889.00 L 365.80 891.50 L 333.70 895.50 L 301.90 900.90 L 347.00 851.40 L 378.10 851.50 L 406.00 852.20 L 430.90 853.50 L 453.10 855.30 L 472.80 857.50 L 490.20 860.10 L 505.50 863.00 L 518.80 866.10 L 530.40 869.50 L 544.20 874.20 L 556.90 879.20 L 568.60 884.40 L 579.40 889.80 L 589.30 895.40 L 598.30 901.20 L 606.60 907.30 L 614.20 913.50 L 621.10 919.90 Z" fill="#3541df" fill-rule="nonzero" group-id="1,40" node-id="479" stroke="none" target-height="82" target-width="321.1" target-x="301.9" target-y="851.4"></path><path d="M 623.10 934.50 L 623.70 934.30 L 624.10 933.20 L 622.20 919.70 L 622.00 919.10 L 618.10 915.50 L 606.70 906.50 L 598.60 900.80 L 588.10 894.10 L 572.30 885.20 L 562.80 880.50 L 553.10 876.20 L 542.50 872.00 L 530.90 867.90 L 515.30 863.60 L 492.50 859.20 L 477.70 857.10 L 462.70 855.30 L 447.40 853.80 L 417.60 851.70 L 390.40 850.50 L 347.10 849.80 L 346.20 850.20 L 301.10 899.90 L 300.90 901.20 L 301.40 901.60 L 320.90 898.20 L 341.70 895.10 L 367.90 892.00 L 382.30 890.70 L 413.70 889.00 L 430.10 888.70 L 447.30 889.60 L 457.10 890.60 L 471.90 892.80 L 487.60 895.70 L 519.50 902.90 L 550.50 911.20 L 578.50 919.50 L 601.30 926.80 L 622.70 934.10 L 623.10 934.50 Z M 620.00 920.40 L 621.50 931.80 L 593.80 922.50 L 570.50 915.20 L 528.60 903.40 L 498.60 896.20 L 483.80 893.20 L 469.10 890.60 L 455.30 888.60 L 446.20 887.70 L 430.00 886.90 L 412.90 887.20 L 396.30 887.90 L 380.00 889.10 L 365.10 890.50 L 338.20 893.70 L 317.40 896.90 L 304.70 899.20 L 347.30 852.30 L 371.40 852.60 L 393.90 853.20 L 434.90 855.50 L 464.30 858.10 L 493.00 861.90 L 506.30 864.20 L 522.90 868.00 L 530.00 870.10 L 541.00 873.90 L 551.10 877.80 L 560.30 881.90 L 569.40 886.30 L 584.70 894.60 L 595.00 901.00 L 603.00 906.50 L 614.80 915.70 L 620.00 920.40 Z" fill="#111111" fill-rule="nonzero" group-id="1,41" node-id="484" stroke="none" target-height="84.70001" target-width="323.19998" target-x="300.9" target-y="849.8"></path><path d="M 621.10 919.90 L 633.20 912.60 L 645.80 906.00 L 658.90 900.00 L 672.50 894.60 L 686.60 889.80 L 701.30 885.60 L 716.50 882.10 L 732.40 879.20 L 749.00 877.00 L 766.20 875.50 L 784.20 874.70 L 803.00 874.70 L 822.50 875.40 L 842.90 877.00 L 864.20 879.40 L 886.40 882.70 L 909.50 887.00 L 933.70 892.20 L 777.40 769.70 L 761.10 765.80 L 745.20 762.70 L 729.90 760.60 L 715.00 759.20 L 700.60 758.60 L 686.50 758.80 L 672.90 759.70 L 659.50 761.40 L 646.50 763.70 L 633.80 766.80 L 621.40 770.60 L 609.20 775.20 L 597.30 780.40 L 621.10 919.90 Z" fill="#ffffff" fill-rule="nonzero" group-id="1,42" node-id="489" stroke="none" target-height="161.30005" target-width="336.40002" target-x="597.3" target-y="758.6"></path><path d="M 621.10 921.00 L 633.60 914.50 L 643.60 909.90 L 654.80 905.30 L 669.60 899.90 L 680.00 896.60 L 705.20 889.90 L 718.60 887.00 L 733.40 884.30 L 749.80 882.00 L 761.90 880.60 L 788.50 878.80 L 803.00 878.40 L 817.20 878.50 L 832.10 879.00 L 847.80 880.00 L 864.30 881.50 L 880.50 883.40 L 897.30 886.10 L 915.00 889.30 L 933.40 893.30 L 934.10 893.20 L 934.70 892.70 L 934.80 892.00 L 934.50 891.40 L 778.20 768.90 L 772.90 767.60 L 751.50 763.70 L 729.30 761.00 L 716.30 760.10 L 702.90 759.60 L 688.30 759.70 L 668.40 760.90 L 658.00 762.00 L 647.80 763.60 L 637.40 765.70 L 627.10 768.30 L 616.80 771.40 L 606.80 775.10 L 596.80 779.40 L 596.30 779.90 L 596.20 780.50 L 620.00 919.90 L 620.10 920.40 L 621.10 921.00 Z M 807.70 876.30 L 781.40 876.90 L 755.20 879.10 L 729.20 882.70 L 703.40 887.90 L 681.30 893.80 L 658.40 901.50 L 647.60 905.80 L 637.80 910.10 L 621.90 918.20 L 598.50 781.10 L 606.80 777.50 L 615.10 774.40 L 623.50 771.60 L 632.00 769.30 L 643.50 766.70 L 654.90 764.70 L 666.20 763.30 L 677.50 762.40 L 699.00 761.70 L 719.40 762.40 L 741.70 764.50 L 762.60 767.70 L 777.10 770.80 L 929.10 890.30 L 914.10 887.10 L 899.10 884.20 L 884.00 881.90 L 868.80 879.90 L 853.60 878.30 L 838.30 877.20 L 823.00 876.60 L 807.70 876.30 Z" fill="#111111" fill-rule="nonzero" group-id="1,43" node-id="494" stroke="none" target-height="161.40002" target-width="338.59998" target-x="596.2" target-y="759.6"></path><path d="M 621.10 919.90 L 605.20 913.50 L 589.10 907.60 L 572.90 902.10 L 556.50 897.20 L 540.00 892.70 L 523.40 888.70 L 506.60 885.30 L 489.80 882.30 L 472.90 879.80 L 455.80 877.80 L 435.60 876.20 L 415.90 875.40 L 396.50 875.40 L 377.60 876.10 L 359.10 877.60 L 340.90 879.70 L 323.00 882.60 L 305.50 886.20 L 288.30 890.50 L 388.30 749.70 L 414.20 750.70 L 439.40 752.30 L 463.90 754.50 L 487.70 757.40 L 510.80 760.90 L 533.30 764.90 L 555.20 769.50 L 576.50 774.70 L 597.20 780.40 L 621.10 919.90 Z" fill="#ffffff" fill-rule="nonzero" group-id="1,44" node-id="499" stroke="none" target-height="170.20001" target-width="332.8" target-x="288.3" target-y="749.7"></path><path d="M 621.10 921.00 L 621.70 920.80 L 622.10 919.70 L 597.90 779.70 L 597.30 779.30 L 583.70 775.50 L 570.00 772.00 L 556.10 768.90 L 535.20 764.70 L 514.80 761.10 L 494.60 758.10 L 457.40 753.50 L 441.20 752.00 L 413.60 749.80 L 388.10 748.60 L 387.20 749.00 L 287.20 889.80 L 287.20 891.10 L 287.70 891.50 L 288.30 891.50 L 312.50 886.30 L 339.20 881.90 L 355.10 880.00 L 373.20 878.30 L 398.70 877.00 L 412.50 876.80 L 426.40 877.00 L 440.60 877.70 L 455.30 878.80 L 472.30 880.80 L 489.20 883.30 L 506.00 886.30 L 522.70 889.70 L 539.30 893.70 L 555.80 898.20 L 572.10 903.10 L 588.30 908.60 L 604.30 914.50 L 620.20 920.90 L 621.10 921.00 Z M 596.20 781.30 L 619.60 918.20 L 601.10 910.80 L 578.50 902.90 L 549.40 894.20 L 532.50 889.90 L 508.80 884.60 L 495.90 882.20 L 469.60 878.20 L 455.80 876.70 L 442.60 875.70 L 417.20 874.70 L 404.70 874.80 L 381.30 875.70 L 364.40 877.00 L 334.90 880.40 L 311.30 884.30 L 290.70 888.70 L 388.50 750.70 L 417.90 752.30 L 445.70 754.50 L 479.50 758.20 L 497.70 760.70 L 517.20 763.70 L 536.80 767.20 L 556.70 771.30 L 570.10 774.30 L 596.20 781.30 Z" fill="#111111" fill-rule="nonzero" group-id="1,45" node-id="504" stroke="none" target-height="172.40002" target-width="334.89996" target-x="287.2" target-y="748.6"></path><path d="M 584.40 258.50 L 583.90 246.70 L 582.90 234.90 L 581.40 223.20 L 579.30 211.60 L 576.70 200.10 L 573.60 188.80 L 569.90 177.60 L 565.70 166.50 L 558.40 166.50 L 562.00 175.30 L 565.30 184.20 L 568.10 193.20 L 570.50 202.30 L 572.60 211.50 L 574.20 220.80 L 575.40 230.10 L 576.20 239.50 L 576.50 249.00 L 576.50 258.50 L 584.40 258.50 Z" fill="#ffffff" fill-rule="nonzero" group-id="1,46" node-id="509" stroke="none" target-height="92" target-width="26" target-x="558.4" target-y="166.5"></path><path d="M 576.40 259.50 L 584.40 259.50 L 585.40 258.90 L 585.10 246.50 L 584.10 234.70 L 582.50 223.00 L 580.40 211.30 L 577.80 199.80 L 574.70 188.40 L 571.00 177.10 L 566.80 166.00 L 566.30 165.50 L 558.40 165.40 L 557.50 165.80 L 557.30 166.40 L 562.40 180.20 L 564.50 186.70 L 569.10 203.50 L 571.20 213.50 L 573.00 223.90 L 574.40 235.10 L 575.30 250.50 L 575.30 258.50 L 575.50 259.40 L 576.40 259.50 Z M 583.30 257.40 L 577.50 257.40 L 577.40 248.80 L 576.20 232.30 L 574.60 220.40 L 572.60 209.50 L 567.80 190.20 L 563.20 175.80 L 560.10 167.50 L 565.00 167.50 L 569.00 178.30 L 572.60 189.30 L 575.60 200.40 L 578.20 211.60 L 580.20 223.00 L 581.80 234.40 L 582.80 245.80 L 583.30 257.40 Z" fill="#111111" fill-rule="nonzero" group-id="1,47" node-id="514" stroke="none" target-height="94.100006" target-width="28.100037" target-x="557.3" target-y="165.4"></path><path d="M 691.40 282.80 L 477.50 282.80 L 474.60 283.10 L 471.90 283.80 L 469.40 285.00 L 467.10 286.60 L 465.20 288.50 L 463.60 290.80 L 462.40 293.30 L 461.70 296.00 L 461.40 298.90 L 461.40 447.90 L 461.70 450.80 L 462.40 453.50 L 463.60 456.00 L 465.20 458.30 L 467.10 460.20 L 469.40 461.80 L 471.90 463.00 L 474.60 463.70 L 477.50 464.00 L 691.40 464.00 L 694.30 463.70 L 697.00 463.00 L 699.50 461.80 L 701.80 460.20 L 703.70 458.30 L 705.30 456.00 L 706.50 453.50 L 707.20 450.80 L 707.50 447.90 L 707.50 298.90 L 707.20 296.00 L 706.50 293.30 L 705.30 290.80 L 703.70 288.50 L 701.80 286.60 L 699.50 285.00 L 697.00 283.80 L 694.30 283.10 L 691.40 282.80 Z" fill="#ffffff" fill-rule="nonzero" group-id="1,48" node-id="519" stroke="none" target-height="181.20001" target-width="246.1" target-x="461.4" target-y="282.8"></path><path d="M 477.30 465.30 L 691.20 465.30 L 694.30 465.00 L 697.20 464.20 L 699.90 463.00 L 702.30 461.20 L 704.30 459.20 L 706.10 456.80 L 707.30 454.10 L 708.10 451.20 L 708.40 448.10 L 708.40 299.10 L 708.10 296.00 L 707.30 293.10 L 706.10 290.40 L 704.30 288.00 L 702.30 286.00 L 699.90 284.20 L 697.20 283.00 L 694.30 282.20 L 691.20 281.90 L 477.30 281.90 L 474.20 282.20 L 471.30 283.00 L 468.60 284.20 L 466.20 286.00 L 464.20 288.00 L 462.40 290.40 L 461.20 293.10 L 460.40 296.00 L 460.10 299.10 L 460.10 448.30 L 460.40 451.40 L 461.20 454.30 L 462.50 456.90 L 464.20 459.30 L 466.30 461.30 L 468.70 463.00 L 471.30 464.20 L 474.20 465.00 L 477.30 465.30 Z M 691.40 283.80 L 694.10 284.00 L 696.70 284.70 L 699.00 285.80 L 701.10 287.30 L 702.90 289.10 L 704.40 291.20 L 705.50 293.50 L 706.20 296.10 L 706.40 298.80 L 706.40 447.80 L 706.20 450.50 L 705.50 453.10 L 704.40 455.40 L 702.90 457.50 L 701.10 459.30 L 699.00 460.80 L 696.70 461.90 L 694.10 462.60 L 691.40 462.80 L 477.50 462.80 L 474.80 462.60 L 472.20 461.90 L 469.90 460.80 L 467.80 459.30 L 466.00 457.50 L 464.50 455.40 L 463.40 453.10 L 462.70 450.50 L 462.50 447.80 L 462.50 298.70 L 462.70 296.00 L 463.40 293.40 L 464.50 291.10 L 466.00 289.00 L 467.80 287.20 L 469.90 285.70 L 472.20 284.60 L 474.80 283.90 L 477.50 283.70 L 691.40 283.80 Z" fill="#111111" fill-rule="nonzero" group-id="1,49" node-id="524" stroke="none" target-height="183.4" target-width="248.30002" target-x="460.1" target-y="281.9"></path><path d="M 601.60 253.70 L 564.20 253.70 L 560.40 254.00 L 556.80 254.70 L 553.40 255.90 L 550.20 257.50 L 547.30 259.50 L 544.60 261.80 L 542.30 264.50 L 540.30 267.40 L 538.70 270.60 L 537.50 274.00 L 536.80 277.60 L 536.50 282.70 L 629.40 282.70 L 629.10 277.60 L 628.30 274.00 L 627.10 270.60 L 625.50 267.40 L 623.50 264.50 L 621.20 261.90 L 618.50 259.50 L 615.60 257.50 L 612.40 255.90 L 609.00 254.70 L 605.40 254.00 L 601.60 253.70 Z" fill="#3541df" fill-rule="nonzero" group-id="1,50" node-id="529" stroke="none" target-height="29.000015" target-width="92.900024" target-x="536.5" target-y="253.7"></path><path d="M 536.40 283.80 L 629.80 283.70 L 630.30 283.20 L 630.40 281.40 L 630.10 277.40 L 629.40 273.70 L 628.10 270.20 L 626.50 266.80 L 624.40 263.80 L 622.00 261.00 L 619.20 258.60 L 616.20 256.50 L 612.80 254.90 L 609.30 253.60 L 605.60 252.90 L 601.60 252.60 L 564.20 252.60 L 560.20 252.90 L 556.50 253.60 L 553.00 254.90 L 549.60 256.50 L 546.60 258.60 L 543.80 261.00 L 541.40 263.80 L 539.30 266.80 L 537.70 270.20 L 536.40 273.70 L 535.70 277.40 L 535.40 283.10 L 536.40 283.80 Z M 628.20 281.70 L 537.50 281.70 L 537.80 277.80 L 538.50 274.40 L 539.60 271.10 L 541.20 268.00 L 543.10 265.20 L 545.30 262.60 L 547.90 260.40 L 550.70 258.50 L 553.80 256.90 L 557.10 255.80 L 560.50 255.10 L 564.20 254.80 L 601.60 254.80 L 605.30 255.10 L 608.70 255.80 L 612.00 257.00 L 615.10 258.60 L 617.90 260.50 L 620.40 262.80 L 622.70 265.40 L 624.60 268.20 L 626.10 271.30 L 627.30 274.60 L 628.00 278.00 L 628.20 281.70 Z" fill="#111111" fill-rule="nonzero" group-id="1,51" node-id="534" stroke="none" target-height="31.199982" target-width="95" target-x="535.4" target-y="252.6"></path><path d="M 663.00 320.00 L 505.60 320.00 L 502.70 320.30 L 500.00 321.00 L 497.50 322.20 L 495.20 323.80 L 493.30 325.70 L 491.70 328.00 L 490.50 330.50 L 489.80 333.20 L 489.50 336.10 L 489.50 395.90 L 489.80 398.80 L 490.50 401.50 L 491.70 404.00 L 493.30 406.30 L 495.20 408.20 L 497.50 409.80 L 500.00 411.00 L 502.70 411.70 L 505.60 412.00 L 663.00 412.00 L 665.90 411.70 L 668.60 411.00 L 671.10 409.80 L 673.40 408.20 L 675.30 406.30 L 676.90 404.00 L 678.10 401.50 L 678.80 398.80 L 679.10 395.90 L 679.10 336.10 L 678.80 333.20 L 678.10 330.50 L 676.90 328.00 L 675.30 325.70 L 673.40 323.80 L 671.10 322.20 L 668.60 321.00 L 665.90 320.30 L 663.00 320.00 Z" fill="#111111" fill-rule="nonzero" group-id="1,52" node-id="539" stroke="none" target-height="92" target-width="189.59998" target-x="489.5" target-y="320"></path><path d="M 505.70 413.00 L 663.00 413.00 L 666.10 412.70 L 669.00 411.90 L 671.70 410.70 L 674.10 408.90 L 676.10 406.90 L 677.90 404.50 L 679.10 401.80 L 679.90 398.90 L 680.20 395.80 L 680.20 336.00 L 679.90 332.90 L 679.10 330.00 L 677.90 327.30 L 676.10 324.90 L 674.10 322.90 L 671.70 321.10 L 669.00 319.90 L 666.10 319.10 L 663.00 318.80 L 505.60 318.80 L 502.50 319.10 L 499.60 319.90 L 496.90 321.10 L 494.50 322.90 L 492.50 324.90 L 490.70 327.30 L 489.50 330.00 L 488.70 332.90 L 488.40 336.00 L 488.40 396.00 L 488.70 399.10 L 489.60 402.00 L 490.90 404.60 L 492.60 407.00 L 494.60 409.00 L 497.10 410.70 L 499.70 411.90 L 502.60 412.70 L 505.70 413.00 Z M 663.00 321.00 L 665.70 321.20 L 668.30 321.90 L 670.60 323.00 L 672.70 324.50 L 674.50 326.30 L 676.00 328.40 L 677.10 330.70 L 677.80 333.30 L 678.00 336.00 L 678.00 395.80 L 677.80 398.50 L 677.10 401.10 L 676.00 403.40 L 674.50 405.50 L 672.70 407.30 L 670.60 408.80 L 668.30 409.90 L 665.70 410.60 L 663.00 410.80 L 505.60 410.80 L 502.90 410.60 L 500.30 409.90 L 498.00 408.80 L 495.90 407.30 L 494.10 405.50 L 492.60 403.40 L 491.50 401.10 L 490.80 398.50 L 490.60 395.80 L 490.60 335.80 L 490.80 333.10 L 491.50 330.50 L 492.60 328.20 L 494.10 326.10 L 495.90 324.30 L 498.00 322.80 L 500.30 321.70 L 502.90 321.00 L 505.60 320.80 L 663.00 321.00 Z" fill="#111111" fill-rule="nonzero" group-id="1,53" node-id="544" stroke="none" target-height="94.20001" target-width="191.80002" target-x="488.4" target-y="318.8"></path><path d="M 519.90 366.00 L 520.10 368.60 L 520.80 371.10 L 521.80 373.30 L 523.30 375.40 L 525.00 377.10 L 527.00 378.60 L 529.20 379.70 L 531.70 380.30 L 534.30 380.60 L 536.90 380.40 L 539.40 379.70 L 541.60 378.70 L 543.70 377.20 L 545.40 375.50 L 546.90 373.50 L 548.00 371.30 L 548.60 368.80 L 548.90 366.20 L 548.70 363.60 L 548.00 361.10 L 547.00 358.90 L 545.50 356.80 L 543.80 355.10 L 541.80 353.60 L 539.60 352.50 L 537.10 351.90 L 534.50 351.60 L 531.70 351.90 L 529.10 352.70 L 532.10 363.90 L 522.40 357.90 L 520.50 361.70 L 519.90 366.00 Z" fill="#ffffff" fill-rule="nonzero" group-id="1,54" node-id="549" stroke="none" target-height="29" target-width="29" target-x="519.9" target-y="351.6"></path><path d="M 619.00 366.00 L 619.20 368.60 L 619.90 371.10 L 621.00 373.30 L 622.40 375.30 L 624.10 377.10 L 626.10 378.50 L 628.40 379.60 L 630.80 380.30 L 633.40 380.60 L 636.00 380.40 L 638.40 379.70 L 640.70 378.70 L 642.70 377.20 L 644.40 375.50 L 645.90 373.50 L 646.90 371.20 L 647.60 368.80 L 647.80 366.20 L 647.60 363.60 L 646.90 361.10 L 645.80 358.90 L 644.40 356.90 L 642.70 355.10 L 640.70 353.70 L 638.40 352.60 L 636.00 351.90 L 633.40 351.60 L 630.70 351.90 L 628.20 352.70 L 631.20 363.90 L 621.50 357.90 L 619.60 361.70 L 619.00 366.00 Z" fill="#ffffff" fill-rule="nonzero" group-id="1,55" node-id="554" stroke="none" target-height="29" target-width="28.799988" target-x="619" target-y="351.6"></path><path d="M 552.50 440.60 L 616.10 440.60 L 618.60 440.40 L 620.80 439.80 L 622.90 438.80 L 626.40 435.80 L 628.80 431.80 L 629.40 429.60 L 629.60 427.10 L 629.60 408.60 L 539.00 408.60 L 539.00 427.00 L 539.20 429.50 L 539.80 431.70 L 540.80 433.90 L 542.20 435.80 L 545.70 438.70 L 547.80 439.70 L 550.00 440.40 L 552.50 440.60 Z" fill="#111111" fill-rule="nonzero" group-id="1,56" node-id="559" stroke="none" target-height="32" target-width="90.599976" target-x="539" target-y="408.6"></path><path d="M 552.50 441.60 L 616.10 441.60 L 618.80 441.40 L 621.20 440.70 L 623.50 439.60 L 625.50 438.20 L 627.30 436.40 L 628.70 434.40 L 629.80 432.10 L 630.50 429.70 L 630.70 427.00 L 630.70 408.50 L 630.40 407.70 L 629.60 407.40 L 538.50 407.50 L 537.90 408.50 L 537.90 427.00 L 538.20 429.70 L 538.90 432.10 L 539.90 434.30 L 541.40 436.40 L 543.10 438.10 L 545.20 439.60 L 547.40 440.60 L 549.80 441.30 L 552.50 441.60 Z M 628.60 409.60 L 628.60 427.00 L 627.80 431.40 L 625.70 435.10 L 622.40 437.80 L 618.40 439.30 L 616.10 439.50 L 552.50 439.50 L 548.10 438.70 L 546.20 437.80 L 542.90 435.10 L 540.80 431.40 L 540.00 427.00 L 540.00 409.60 L 628.60 409.60 Z" fill="#111111" fill-rule="nonzero" group-id="1,57" node-id="564" stroke="none" target-height="34.200012" target-width="92.79999" target-x="537.9" target-y="407.4"></path><path d="M 574.30 167.30 L 573.50 171.70 L 571.40 175.40 L 568.10 178.10 L 566.20 179.00 L 561.80 179.80 L 557.40 179.00 L 553.70 176.90 L 551.00 173.60 L 549.50 169.60 L 549.30 167.30 L 549.50 165.00 L 550.10 162.90 L 552.20 159.20 L 555.50 156.50 L 557.40 155.60 L 561.80 154.80 L 566.20 155.60 L 568.10 156.50 L 571.40 159.20 L 573.50 162.90 L 574.30 167.30 Z" fill="#3541df" fill-rule="nonzero" group-id="1,58" node-id="569" stroke="none" target-height="25" target-width="25" target-x="549.3" target-y="154.8"></path><path d="M 561.80 180.90 L 564.20 180.70 L 566.50 180.10 L 568.60 179.10 L 572.10 176.20 L 574.40 172.30 L 575.10 170.00 L 575.30 167.60 L 575.10 165.20 L 574.50 162.90 L 572.20 158.90 L 568.70 156.00 L 566.70 155.00 L 564.40 154.30 L 562.00 154.10 L 559.60 154.30 L 557.30 154.90 L 553.30 157.20 L 550.40 160.70 L 549.40 162.70 L 548.70 165.00 L 548.50 167.40 L 548.70 169.80 L 549.30 172.10 L 551.60 176.10 L 555.10 179.00 L 557.10 180.00 L 559.40 180.70 L 561.80 180.90 Z M 561.80 156.10 L 565.80 156.80 L 567.50 157.60 L 570.50 160.00 L 572.50 163.40 L 573.20 167.30 L 572.50 171.30 L 570.60 174.60 L 567.70 177.10 L 565.90 178.00 L 562.00 178.70 L 558.00 178.00 L 554.70 176.10 L 552.20 173.20 L 551.30 171.40 L 550.60 167.50 L 551.30 163.50 L 553.20 160.20 L 556.10 157.70 L 557.90 156.80 L 561.80 156.10 Z" fill="#111111" fill-rule="nonzero" group-id="1,59" node-id="574" stroke="none" target-height="26.799988" target-width="26.799988" target-x="548.5" target-y="154.1"></path><path d="M 559.40 464.00 L 609.30 464.00 L 609.30 488.10 L 559.40 488.10 Z" fill="#3541df" fill-rule="nonzero" group-id="1,60" node-id="579" stroke="none" target-height="24.100006" target-width="49.899963" target-x="559.4" target-y="464"></path><path d="M 559.40 489.30 L 609.80 489.20 L 610.40 488.20 L 610.40 464.10 L 609.80 463.10 L 558.90 463.10 L 558.30 464.10 L 558.30 488.20 L 558.60 489.00 L 559.40 489.30 Z M 608.20 487.20 L 560.50 487.20 L 560.50 465.30 L 608.20 465.30 L 608.20 487.20 Z" fill="#111111" fill-rule="nonzero" group-id="1,61" node-id="584" stroke="none" target-height="26.199982" target-width="52.100037" target-x="558.3" target-y="463.1"></path><path d="M 559.40 472.40 L 609.30 472.40 L 610.30 471.80 L 610.30 470.80 L 609.80 470.30 L 559.40 470.20 L 558.60 470.50 L 558.30 471.30 L 558.60 472.10 L 559.40 472.40 Z" fill="#111111" fill-rule="nonzero" group-id="1,62" node-id="589" stroke="none" target-height="2.1999817" target-width="52" target-x="558.3" target-y="470.2"></path><path d="M 559.40 481.60 L 609.30 481.60 L 609.80 481.50 L 610.30 481.00 L 610.30 480.00 L 609.80 479.50 L 559.40 479.40 L 558.60 479.70 L 558.30 480.50 L 558.60 481.30 L 559.40 481.60 Z" fill="#111111" fill-rule="nonzero" group-id="1,63" node-id="594" stroke="none" target-height="2.2000122" target-width="52" target-x="558.3" target-y="479.4"></path><path d="M 467.20 536.00 L 404.40 708.00 L 565.60 757.00 L 628.20 749.00 L 629.90 749.00 L 633.00 750.00 L 635.40 752.20 L 636.20 753.70 L 636.70 755.70 L 636.60 757.60 L 636.10 759.40 L 635.10 761.10 L 633.70 762.40 L 631.90 763.40 L 614.30 770.10 L 690.40 802.10 L 691.80 803.00 L 692.70 804.30 L 693.10 805.90 L 692.80 807.50 L 691.90 809.70 L 691.30 810.60 L 689.30 811.60 L 688.20 811.70 L 627.90 793.10 L 675.20 822.60 L 676.40 823.80 L 677.20 825.30 L 677.20 827.40 L 676.70 828.40 L 675.00 830.40 L 673.60 831.10 L 672.10 831.20 L 670.50 830.70 L 621.10 806.60 L 646.90 841.40 L 647.50 842.40 L 647.80 844.60 L 646.90 846.60 L 644.30 848.70 L 642.80 849.40 L 641.30 849.50 L 639.80 849.10 L 638.50 848.10 L 611.20 818.20 L 616.00 846.00 L 615.90 847.70 L 615.30 849.30 L 614.20 850.50 L 612.60 851.20 L 610.30 851.00 L 609.10 850.40 L 608.20 849.50 L 607.60 848.20 L 598.40 821.30 L 589.60 818.30 L 581.10 814.80 L 572.70 810.80 L 564.60 806.30 L 556.80 801.50 L 549.20 796.10 L 388.20 749.70 L 383.70 748.10 L 379.50 746.20 L 375.70 743.90 L 372.10 741.30 L 368.70 738.30 L 365.80 735.00 L 363.10 731.50 L 360.80 727.80 L 358.90 723.80 L 357.30 719.80 L 356.20 715.50 L 355.50 711.20 L 355.20 706.70 L 355.30 702.30 L 355.90 697.80 L 357.00 693.20 L 424.30 523.60 L 467.20 536.00 Z" fill="#ffffff" fill-rule="nonzero" group-id="1,64" node-id="599" stroke="none" target-height="327.60004" target-width="337.89996" target-x="355.2" target-y="523.6"></path><path d="M 611.70 852.20 L 612.90 852.10 L 615.00 851.20 L 616.50 849.30 L 617.10 847.00 L 612.80 821.90 L 638.50 849.90 L 640.90 850.70 L 643.40 850.50 L 644.60 849.90 L 647.20 847.80 L 648.40 845.30 L 648.40 843.90 L 647.40 841.10 L 624.40 809.70 L 671.10 832.30 L 672.30 832.40 L 674.80 831.70 L 676.70 829.90 L 677.80 827.90 L 678.00 825.00 L 677.70 824.00 L 676.50 822.20 L 635.20 796.40 L 686.40 812.30 L 687.90 812.50 L 690.50 812.00 L 692.60 810.20 L 693.70 807.80 L 694.00 806.40 L 693.50 803.90 L 691.90 801.80 L 690.70 801.10 L 617.20 770.10 L 632.20 764.30 L 634.10 763.00 L 635.60 761.40 L 636.60 759.40 L 637.10 757.30 L 637.00 755.10 L 636.30 752.90 L 635.40 751.40 L 633.00 749.20 L 629.80 748.10 L 628.10 748.00 L 565.80 756.00 L 405.90 707.40 L 468.70 536.10 L 467.90 535.00 L 424.60 522.50 L 423.60 523.10 L 357.80 688.40 L 356.30 693.00 L 355.20 697.60 L 354.60 702.20 L 354.50 706.70 L 354.80 711.30 L 355.60 715.80 L 356.70 720.10 L 358.30 724.30 L 360.30 728.40 L 362.60 732.20 L 365.30 735.80 L 368.40 739.10 L 371.80 742.20 L 375.50 744.80 L 379.60 747.20 L 386.10 750.00 L 548.90 797.10 L 556.40 802.40 L 564.20 807.20 L 572.30 811.60 L 580.50 815.50 L 589.00 819.00 L 597.70 822.00 L 607.30 849.90 L 608.50 851.10 L 609.90 852.00 L 611.70 852.20 Z M 611.20 817.40 L 610.30 817.90 L 610.20 818.50 L 615.20 847.50 L 614.70 848.70 L 613.90 849.70 L 612.70 850.30 L 611.40 850.40 L 610.20 849.90 L 609.20 849.10 L 608.60 847.90 L 599.10 820.50 L 589.80 817.40 L 581.40 813.90 L 573.10 810.00 L 565.00 805.60 L 557.20 800.80 L 549.30 795.30 L 388.30 748.90 L 383.90 747.40 L 379.90 745.50 L 376.10 743.30 L 372.60 740.70 L 369.40 737.80 L 366.50 734.60 L 364.00 731.20 L 361.70 727.60 L 359.80 723.70 L 358.30 719.70 L 357.20 715.60 L 356.50 711.30 L 356.20 707.00 L 356.40 702.60 L 356.90 698.20 L 358.00 693.70 L 424.90 525.00 L 465.70 536.80 L 403.10 707.70 L 403.10 708.60 L 403.70 709.00 L 564.90 758.00 L 628.10 750.00 L 629.90 750.20 L 631.40 750.70 L 632.70 751.70 L 633.70 752.90 L 634.80 756.20 L 634.60 758.10 L 633.90 759.80 L 632.70 761.20 L 631.10 762.20 L 613.50 768.90 L 612.90 770.00 L 613.50 771.10 L 689.60 803.10 L 690.60 803.80 L 691.30 804.80 L 691.60 806.00 L 691.50 807.20 L 690.40 809.40 L 689.50 810.20 L 688.30 810.50 L 687.00 810.40 L 627.90 792.10 L 627.10 792.20 L 626.60 792.70 L 626.60 793.40 L 627.00 794.00 L 674.50 823.70 L 675.50 824.60 L 676.00 825.80 L 676.00 827.10 L 675.60 828.40 L 674.30 829.90 L 673.30 830.40 L 672.10 830.50 L 670.90 830.10 L 621.70 806.00 L 620.90 806.00 L 620.20 806.40 L 620.20 807.50 L 646.00 842.30 L 646.60 844.90 L 646.20 846.10 L 643.80 848.10 L 642.70 848.50 L 640.50 848.30 L 639.50 847.70 L 612.20 817.80 L 611.20 817.40 Z" fill="#111111" fill-rule="nonzero" group-id="1,65" node-id="604" stroke="none" target-height="329.7" target-width="339.5" target-x="354.5" target-y="522.5"></path><path d="M 415.00 715.50 L 414.70 720.20 L 413.80 724.60 L 412.30 728.70 L 410.30 732.70 L 407.90 736.30 L 405.00 739.50 L 401.80 742.40 L 398.20 744.80 L 394.20 746.80 L 390.10 748.30 L 385.70 749.20 L 381.00 749.50 L 376.30 749.20 L 371.90 748.30 L 367.80 746.80 L 363.80 744.80 L 360.20 742.40 L 357.00 739.50 L 354.10 736.30 L 351.70 732.70 L 349.70 728.70 L 348.20 724.60 L 347.30 720.20 L 347.00 715.50 L 347.30 710.80 L 348.20 706.40 L 349.70 702.30 L 351.70 698.30 L 354.10 694.70 L 357.00 691.50 L 360.20 688.60 L 363.80 686.20 L 367.80 684.20 L 371.90 682.70 L 376.30 681.80 L 381.00 681.50 L 385.70 681.80 L 390.10 682.70 L 394.20 684.20 L 398.20 686.20 L 401.80 688.60 L 405.00 691.50 L 407.90 694.70 L 410.30 698.30 L 412.30 702.30 L 413.80 706.40 L 414.70 710.80 L 415.00 715.50 Z" fill="#3541df" fill-rule="nonzero" group-id="1,66" node-id="609" stroke="none" target-height="68" target-width="68" target-x="347" target-y="681.5"></path><path d="M 381.00 750.50 L 385.80 750.20 L 390.30 749.20 L 394.60 747.70 L 398.70 745.70 L 402.40 743.20 L 405.70 740.20 L 408.70 736.90 L 411.20 733.20 L 413.20 729.10 L 414.70 724.80 L 415.70 720.30 L 416.00 715.50 L 415.70 710.70 L 414.70 706.20 L 413.20 701.90 L 411.20 697.80 L 408.70 694.10 L 405.70 690.80 L 402.40 687.80 L 398.70 685.30 L 394.60 683.30 L 390.30 681.80 L 385.80 680.80 L 381.00 680.50 L 376.20 680.80 L 371.70 681.80 L 367.40 683.30 L 363.30 685.30 L 359.60 687.80 L 356.30 690.80 L 353.30 694.10 L 350.80 697.80 L 348.80 701.90 L 347.30 706.20 L 346.30 710.70 L 346.00 715.50 L 346.30 720.30 L 347.30 724.80 L 348.80 729.10 L 350.80 733.20 L 353.30 736.90 L 356.30 740.20 L 359.60 743.20 L 363.30 745.70 L 367.40 747.70 L 371.70 749.20 L 376.20 750.20 L 381.00 750.50 Z M 381.00 682.40 L 385.50 682.70 L 389.80 683.60 L 393.80 685.00 L 397.60 686.90 L 401.10 689.30 L 404.30 692.00 L 407.00 695.20 L 409.40 698.70 L 411.30 702.50 L 412.70 706.50 L 413.60 710.80 L 413.90 715.30 L 413.60 719.80 L 412.70 724.10 L 411.30 728.10 L 409.40 731.90 L 407.00 735.40 L 404.30 738.60 L 401.10 741.30 L 397.60 743.70 L 393.80 745.60 L 389.80 747.00 L 385.50 747.90 L 381.00 748.20 L 376.50 747.90 L 372.20 747.00 L 368.20 745.60 L 364.40 743.70 L 360.90 741.30 L 357.70 738.60 L 355.00 735.40 L 352.60 731.90 L 350.70 728.10 L 349.30 724.10 L 348.40 719.80 L 348.10 715.30 L 348.40 710.80 L 349.30 706.50 L 350.70 702.50 L 352.60 698.70 L 354.90 695.20 L 357.70 692.00 L 360.90 689.20 L 364.40 686.90 L 368.20 685.00 L 372.20 683.60 L 376.50 682.70 L 381.00 682.40 Z" fill="#111111" fill-rule="nonzero" group-id="1,67" node-id="614" stroke="none" target-height="70" target-width="70" target-x="346" target-y="680.5"></path><path d="M 455.80 569.70 L 460.90 569.00 L 470.30 566.40 L 474.80 564.60 L 483.20 560.00 L 490.70 554.30 L 495.10 549.80 L 499.10 545.00 L 502.50 539.70 L 506.70 531.20 L 508.20 526.70 L 510.30 517.30 L 510.80 512.50 L 510.60 502.40 L 509.90 497.40 L 508.80 492.60 L 507.20 487.80 L 506.70 487.20 L 505.90 487.20 L 505.30 487.70 L 505.30 488.50 L 506.80 493.20 L 508.60 502.50 L 508.90 507.10 L 508.70 513.30 L 508.00 519.30 L 506.60 525.20 L 504.60 530.90 L 502.00 536.40 L 498.90 541.60 L 495.30 546.50 L 491.20 550.90 L 486.50 555.00 L 482.80 557.70 L 474.50 562.30 L 470.00 564.20 L 465.40 565.70 L 460.60 566.80 L 455.30 567.50 L 454.80 568.00 L 454.80 569.00 L 455.80 569.70 Z" fill="#111111" fill-rule="nonzero" group-id="1,68" node-id="619" stroke="none" target-height="82.5" target-width="56" target-x="454.8" target-y="487.2"></path><path d="M 721.10 570.40 L 725.00 570.40 L 725.80 570.10 L 726.00 568.80 L 725.50 568.30 L 715.90 568.00 L 711.00 567.40 L 706.30 566.40 L 701.70 565.00 L 693.00 561.20 L 685.30 556.20 L 680.60 552.20 L 676.30 547.80 L 672.60 543.00 L 669.30 537.80 L 666.70 532.30 L 664.50 526.50 L 662.50 517.40 L 662.00 508.00 L 662.30 503.20 L 663.00 498.50 L 664.10 493.60 L 665.70 488.70 L 665.70 487.90 L 665.10 487.40 L 664.30 487.40 L 663.80 488.00 L 661.10 497.70 L 660.10 507.30 L 660.50 516.80 L 662.50 526.10 L 664.50 532.00 L 667.20 537.70 L 670.40 543.10 L 676.20 550.60 L 679.50 553.90 L 687.00 559.90 L 691.20 562.50 L 700.30 566.70 L 705.40 568.30 L 710.50 569.50 L 715.80 570.20 L 721.10 570.40 Z" fill="#111111" fill-rule="nonzero" group-id="1,69" node-id="624" stroke="none" target-height="83.00003" target-width="65.900024" target-x="660.1" target-y="487.4"></path><path d="M 441.40 784.10 L 530.00 802.60 L 532.40 802.90 L 536.90 802.30 L 539.00 801.40 L 542.70 798.80 L 545.40 795.10 L 557.00 758.10 L 557.60 753.50 L 556.70 749.00 L 554.50 745.10 L 551.10 742.00 L 549.00 740.90 L 465.40 706.30 L 463.00 705.50 L 460.50 705.20 L 458.10 705.30 L 455.80 705.80 L 453.60 706.70 L 451.60 708.00 L 449.80 709.60 L 448.30 711.50 L 447.10 713.80 L 431.00 766.30 L 430.50 768.80 L 430.40 771.30 L 430.70 773.60 L 431.40 775.90 L 432.50 778.00 L 434.00 780.00 L 435.80 781.60 L 437.80 782.90 L 441.40 784.10 Z" fill="#3541df" fill-rule="nonzero" group-id="1,70" node-id="629" stroke="none" target-height="97.70001" target-width="127.19998" target-x="430.4" target-y="705.2"></path><path d="M 532.80 803.80 L 537.10 803.20 L 540.90 801.50 L 544.10 798.70 L 545.40 797.00 L 547.20 793.10 L 558.50 755.80 L 558.60 753.30 L 558.40 750.80 L 557.70 748.50 L 556.70 746.30 L 555.30 744.30 L 553.60 742.50 L 551.60 741.00 L 549.30 739.80 L 465.70 705.20 L 463.00 704.40 L 460.40 704.00 L 457.80 704.20 L 455.30 704.70 L 452.90 705.70 L 450.70 707.10 L 448.80 708.90 L 447.20 710.90 L 445.90 713.40 L 429.80 765.90 L 429.20 768.60 L 429.10 771.30 L 429.40 773.90 L 430.30 776.40 L 431.50 778.60 L 433.10 780.70 L 435.00 782.40 L 437.30 783.80 L 441.20 785.20 L 529.80 803.70 L 532.80 803.80 Z M 459.90 706.20 L 462.40 706.50 L 464.80 707.30 L 548.40 741.90 L 550.40 742.90 L 553.50 745.70 L 554.70 747.50 L 556.20 751.40 L 556.40 755.60 L 545.20 792.60 L 544.40 794.70 L 541.90 798.10 L 538.50 800.50 L 534.50 801.60 L 530.20 801.40 L 441.60 782.90 L 439.30 782.20 L 437.30 781.20 L 433.90 778.30 L 431.80 774.40 L 431.30 772.20 L 431.20 770.00 L 431.50 767.60 L 447.80 715.10 L 448.90 712.60 L 450.40 710.40 L 452.40 708.70 L 454.70 707.30 L 457.20 706.50 L 459.90 706.20 Z" fill="#111111" fill-rule="nonzero" group-id="1,71" node-id="634" stroke="none" target-height="99.79999" target-width="129.49997" target-x="429.1" target-y="704"></path><path d="M 574.50 523.50 L 596.90 523.30 L 601.70 522.00 L 606.00 519.50 L 609.40 515.90 L 610.80 513.80 L 621.10 488.10 L 547.60 488.10 L 556.80 511.50 L 559.30 516.00 L 562.80 519.50 L 567.10 522.00 L 571.90 523.30 L 574.50 523.50 Z" fill="#111111" fill-rule="nonzero" group-id="1,72" node-id="639" stroke="none" target-height="35.399994" target-width="73.5" target-x="547.6" target-y="488.1"></path><path d="M 574.50 524.60 L 597.00 524.40 L 602.20 523.00 L 606.70 520.40 L 610.40 516.60 L 613.00 511.90 L 622.20 488.50 L 622.20 487.70 L 621.60 487.20 L 547.70 487.20 L 546.90 487.50 L 546.60 488.70 L 555.80 512.10 L 558.50 516.80 L 562.20 520.50 L 566.70 523.10 L 571.80 524.40 L 574.50 524.60 Z M 619.60 489.30 L 610.80 511.20 L 608.50 515.40 L 605.20 518.80 L 601.20 521.10 L 596.60 522.30 L 594.20 522.40 L 572.00 522.20 L 567.50 521.00 L 563.40 518.70 L 560.20 515.40 L 558.90 513.40 L 549.20 489.30 L 619.60 489.30 Z" fill="#111111" fill-rule="nonzero" group-id="1,73" node-id="644" stroke="none" target-height="37.399963" target-width="75.60004" target-x="546.6" target-y="487.2"></path><path d="M 530.40 700.00 L 643.30 700.00 L 647.90 699.20 L 651.90 697.20 L 655.00 694.00 L 656.20 692.10 L 657.70 687.70 L 669.70 611.80 L 669.90 609.10 L 669.60 606.60 L 668.90 604.30 L 667.80 602.00 L 666.40 600.00 L 664.60 598.30 L 662.60 596.90 L 660.30 595.90 L 657.70 595.20 L 655.30 595.00 L 518.20 595.00 L 515.50 595.20 L 513.10 595.90 L 510.80 597.00 L 508.80 598.40 L 507.00 600.20 L 505.60 602.20 L 504.50 604.50 L 503.80 606.90 L 503.60 609.60 L 515.80 687.90 L 517.40 692.30 L 520.10 695.80 L 523.70 698.40 L 525.80 699.30 L 530.40 700.00 Z" fill="#3541df" fill-rule="nonzero" group-id="1,74" node-id="649" stroke="none" target-height="105" target-width="166.30002" target-x="503.6" target-y="595"></path><path d="M 530.40 701.10 L 643.30 701.10 L 648.20 700.30 L 652.50 698.10 L 655.90 694.70 L 657.20 692.70 L 658.80 688.00 L 670.80 611.90 L 671.00 609.00 L 670.70 606.30 L 669.90 603.80 L 668.70 601.30 L 667.20 599.20 L 665.20 597.40 L 663.00 595.90 L 660.50 594.80 L 657.70 594.10 L 518.20 593.90 L 515.40 594.10 L 512.70 594.80 L 510.30 596.00 L 508.10 597.50 L 506.30 599.40 L 504.70 601.50 L 503.50 604.00 L 502.80 606.60 L 502.50 609.40 L 502.70 612.00 L 514.70 687.90 L 516.40 692.60 L 519.30 696.50 L 523.20 699.30 L 525.50 700.30 L 530.40 701.10 Z M 655.30 596.00 L 657.80 596.20 L 660.00 596.80 L 662.10 597.80 L 665.60 600.80 L 668.00 604.80 L 668.60 607.00 L 668.80 609.50 L 668.60 611.60 L 656.10 689.60 L 654.10 693.30 L 651.20 696.20 L 647.50 698.20 L 643.30 698.90 L 530.40 698.90 L 526.10 698.30 L 522.40 696.30 L 519.50 693.40 L 518.40 691.60 L 517.10 687.50 L 505.10 611.60 L 505.00 609.10 L 505.20 606.80 L 505.90 604.60 L 508.30 600.70 L 511.80 597.70 L 513.90 596.70 L 517.30 595.90 L 655.30 596.00 Z" fill="#111111" fill-rule="nonzero" group-id="1,75" node-id="654" stroke="none" target-height="107.19995" target-width="168.5" target-x="502.5" target-y="593.9"></path><path d="M 795.90 382.90 L 798.30 378.00 L 803.00 345.50 L 803.00 343.90 L 802.60 342.40 L 801.80 341.00 L 800.60 339.90 L 799.20 339.20 L 796.20 338.90 L 793.50 340.10 L 792.40 341.20 L 781.70 356.20 L 795.90 382.90 Z" fill="#ffffff" fill-rule="nonzero" group-id="1,76" node-id="659" stroke="none" target-height="44" target-width="21.299988" target-x="781.7" target-y="338.9"></path><path d="M 795.90 384.00 L 796.50 383.80 L 796.80 383.40 L 799.20 378.50 L 803.90 345.80 L 804.00 343.90 L 803.50 342.20 L 802.70 340.70 L 801.40 339.40 L 799.90 338.60 L 798.10 338.10 L 796.20 338.00 L 794.30 338.50 L 792.70 339.50 L 791.40 340.90 L 780.50 356.40 L 794.90 383.70 L 795.90 384.00 Z M 797.20 377.80 L 795.90 380.60 L 783.00 356.50 L 794.20 341.00 L 795.20 340.30 L 797.70 339.90 L 800.00 340.80 L 800.90 341.70 L 801.90 344.00 L 801.90 345.30 L 797.20 377.80 Z" fill="#111111" fill-rule="nonzero" group-id="1,77" node-id="664" stroke="none" target-height="46" target-width="23.5" target-x="780.5" target-y="338"></path><path d="M 735.90 500.10 L 853.50 518.80 L 770.10 415.60 L 763.10 409.10 L 757.30 403.00 L 752.60 397.20 L 749.00 391.70 L 746.20 386.40 L 743.60 380.50 L 741.60 374.40 L 740.00 368.30 L 738.90 361.90 L 706.90 341.30 L 705.70 340.20 L 705.10 338.70 L 705.00 337.10 L 705.60 335.60 L 706.60 334.40 L 708.10 333.70 L 709.60 333.50 L 711.20 334.00 L 745.40 351.60 L 722.60 330.90 L 721.90 328.80 L 722.40 326.70 L 723.50 325.40 L 724.80 324.50 L 726.40 324.20 L 727.90 324.40 L 729.30 325.20 L 756.00 347.30 L 739.50 326.70 L 739.10 324.60 L 739.90 322.60 L 742.20 320.80 L 743.70 320.60 L 745.80 321.20 L 746.70 321.90 L 770.10 343.40 L 758.30 326.60 L 757.60 325.00 L 757.60 323.40 L 758.20 321.80 L 759.40 320.60 L 762.00 319.70 L 763.50 319.80 L 765.40 321.00 L 780.30 336.40 L 786.70 345.10 L 789.40 349.80 L 791.80 354.60 L 795.50 364.70 L 800.70 387.60 L 905.50 518.20 L 907.60 521.30 L 909.30 524.50 L 910.40 527.90 L 911.20 531.40 L 911.40 534.90 L 911.20 538.50 L 910.50 542.00 L 909.30 545.40 L 907.70 548.70 L 905.60 551.80 L 903.10 554.50 L 900.40 556.80 L 897.40 558.70 L 894.20 560.20 L 890.70 561.20 L 887.20 561.90 L 883.60 562.00 L 879.90 561.60 L 734.40 536.20 L 735.90 500.10 Z" fill="#ffffff" fill-rule="nonzero" group-id="1,78" node-id="669" stroke="none" target-height="242.29999" target-width="206.40002" target-x="705" target-y="319.7"></path><path d="M 884.70 563.30 L 888.50 563.00 L 892.20 562.20 L 895.60 561.00 L 898.80 559.40 L 901.70 557.40 L 904.40 555.00 L 906.80 552.30 L 908.70 549.30 L 910.30 546.00 L 911.50 542.60 L 912.20 538.90 L 912.40 535.10 L 911.70 528.90 L 909.60 523.00 L 906.20 517.70 L 801.30 387.40 L 796.00 364.70 L 794.30 359.50 L 789.80 349.60 L 784.00 340.40 L 777.00 332.00 L 765.80 320.60 L 764.60 319.70 L 761.90 318.90 L 760.00 319.10 L 757.70 320.50 L 756.30 322.80 L 756.10 324.30 L 756.40 326.00 L 757.20 327.50 L 762.80 335.50 L 746.30 320.30 L 743.70 319.60 L 741.90 319.80 L 740.60 320.40 L 738.70 322.40 L 738.00 325.00 L 738.60 327.50 L 748.30 339.60 L 728.70 323.60 L 727.50 323.20 L 725.00 323.20 L 722.50 324.70 L 721.60 325.90 L 720.80 328.80 L 721.60 331.50 L 722.50 332.70 L 738.40 346.90 L 711.50 333.10 L 710.10 332.70 L 707.40 332.90 L 705.10 334.30 L 704.20 335.50 L 703.70 336.80 L 703.60 338.00 L 704.30 340.50 L 706.10 342.40 L 737.70 362.80 L 738.80 369.10 L 740.40 375.30 L 742.50 381.40 L 745.00 387.30 L 747.20 391.50 L 749.90 395.80 L 756.00 403.70 L 762.20 410.30 L 769.10 417.00 L 850.80 517.40 L 736.10 499.00 L 735.20 499.20 L 734.80 500.10 L 733.10 536.40 L 733.40 537.10 L 734.00 537.50 L 879.70 562.90 L 884.70 563.30 Z M 762.10 321.00 L 763.40 321.30 L 764.50 322.10 L 775.70 333.50 L 780.40 338.90 L 784.60 344.60 L 788.20 350.60 L 791.30 357.00 L 793.80 363.60 L 795.70 370.50 L 799.80 388.50 L 904.90 519.00 L 906.90 521.90 L 908.50 525.00 L 909.70 528.30 L 910.30 531.60 L 910.60 535.00 L 910.40 538.40 L 909.70 541.80 L 908.60 545.10 L 907.00 548.30 L 905.00 551.20 L 902.70 553.80 L 900.10 556.00 L 897.20 557.90 L 894.10 559.30 L 890.80 560.30 L 887.40 560.90 L 884.00 561.10 L 880.40 560.70 L 735.70 535.50 L 737.20 501.30 L 853.50 519.80 L 854.60 519.40 L 854.80 518.70 L 854.60 518.10 L 771.20 415.00 L 764.60 408.70 L 758.50 402.10 L 752.30 394.30 L 749.50 390.10 L 747.30 386.00 L 744.70 380.20 L 742.70 374.20 L 739.60 361.00 L 707.60 340.40 L 706.60 339.50 L 706.10 338.40 L 705.90 337.20 L 706.30 335.90 L 707.20 334.90 L 708.30 334.30 L 709.50 334.20 L 710.80 334.60 L 745.20 352.20 L 746.00 352.20 L 746.70 351.80 L 746.50 350.50 L 724.40 330.70 L 723.60 329.60 L 723.30 328.30 L 723.60 327.00 L 724.60 325.70 L 725.60 325.00 L 727.80 324.90 L 728.90 325.50 L 755.80 347.60 L 756.50 347.90 L 757.30 347.60 L 757.60 346.80 L 757.30 346.10 L 741.40 326.50 L 740.90 325.60 L 740.80 323.50 L 741.50 322.10 L 743.30 321.20 L 744.40 321.10 L 746.30 321.80 L 769.50 343.70 L 770.30 344.00 L 771.00 343.70 L 771.30 343.00 L 771.20 342.20 L 759.00 324.60 L 758.90 322.90 L 759.70 321.30 L 761.10 320.40 L 762.00 320.30 L 762.10 321.00 Z" fill="#111111" fill-rule="nonzero" group-id="1,79" node-id="674" stroke="none" target-height="244.4" target-width="208.80005" target-x="703.6" target-y="318.9"></path><path d="M 484.80 514.70 L 484.10 522.00 L 482.00 528.80 L 479.90 532.90 L 477.30 536.80 L 474.20 540.20 L 470.80 543.30 L 466.90 545.90 L 462.80 548.00 L 456.00 550.10 L 448.70 550.80 L 441.40 550.10 L 434.60 548.00 L 430.50 545.90 L 426.60 543.30 L 423.20 540.20 L 420.10 536.80 L 417.50 532.90 L 415.40 528.80 L 413.30 522.00 L 412.80 518.40 L 412.60 514.70 L 412.90 509.90 L 413.80 505.30 L 415.30 500.90 L 417.40 496.70 L 420.00 492.80 L 423.20 489.20 L 426.80 486.00 L 430.70 483.40 L 434.90 481.30 L 439.30 479.80 L 443.90 478.90 L 448.70 478.60 L 453.50 478.90 L 458.10 479.80 L 462.50 481.30 L 466.70 483.40 L 470.60 486.00 L 474.20 489.20 L 477.40 492.80 L 480.00 496.70 L 482.10 500.90 L 483.60 505.30 L 484.50 509.90 L 484.80 514.70 Z" fill="#3541df" fill-rule="nonzero" group-id="1,80" node-id="679" stroke="none" target-height="72.19998" target-width="72.19998" target-x="412.6" target-y="478.6"></path><path d="M 448.70 551.90 L 456.20 551.10 L 463.20 549.00 L 467.50 546.80 L 471.40 544.20 L 475.00 541.00 L 478.20 537.40 L 480.80 533.50 L 483.00 529.20 L 485.10 522.20 L 485.90 514.70 L 485.10 507.20 L 483.00 500.20 L 480.80 495.90 L 478.20 492.00 L 475.00 488.40 L 471.40 485.20 L 467.50 482.60 L 463.20 480.40 L 456.20 478.30 L 448.70 477.50 L 441.20 478.30 L 434.20 480.40 L 429.90 482.60 L 426.00 485.20 L 422.40 488.40 L 419.20 492.00 L 416.60 495.90 L 414.40 500.20 L 412.30 507.20 L 411.50 514.70 L 412.30 522.30 L 414.40 529.20 L 416.60 533.50 L 419.20 537.40 L 422.40 541.00 L 426.00 544.20 L 429.90 546.80 L 434.20 549.00 L 441.10 551.10 L 448.70 551.90 Z M 448.70 479.70 L 453.50 480.00 L 458.00 481.00 L 462.30 482.50 L 466.40 484.50 L 470.10 487.00 L 473.40 490.00 L 476.40 493.30 L 478.90 497.00 L 480.90 501.10 L 482.40 505.40 L 483.40 509.90 L 483.70 514.70 L 483.40 519.50 L 482.40 524.00 L 480.90 528.30 L 478.90 532.40 L 476.40 536.10 L 473.40 539.40 L 470.10 542.40 L 466.40 544.90 L 462.30 546.90 L 458.00 548.40 L 453.50 549.40 L 448.70 549.70 L 443.90 549.40 L 439.40 548.40 L 435.10 546.90 L 431.00 544.90 L 427.30 542.40 L 424.00 539.40 L 421.00 536.10 L 418.50 532.40 L 416.50 528.30 L 415.00 524.00 L 414.00 519.50 L 413.70 514.70 L 414.00 509.90 L 415.00 505.40 L 416.50 501.10 L 418.50 497.00 L 421.00 493.30 L 424.00 490.00 L 427.30 487.00 L 431.00 484.50 L 435.10 482.50 L 439.40 481.00 L 443.90 480.00 L 448.70 479.70 Z" fill="#111111" fill-rule="nonzero" group-id="1,81" node-id="684" stroke="none" target-height="74.400024" target-width="74.399994" target-x="411.5" target-y="477.5"></path><path d="M 756.10 514.70 L 755.40 522.00 L 753.30 528.80 L 751.20 532.90 L 748.60 536.80 L 745.50 540.20 L 742.10 543.30 L 738.20 545.90 L 734.10 548.00 L 727.30 550.10 L 720.00 550.80 L 712.70 550.10 L 705.90 548.00 L 701.80 545.90 L 697.90 543.30 L 694.50 540.20 L 691.40 536.80 L 688.80 532.90 L 686.70 528.80 L 684.60 522.00 L 684.10 518.40 L 683.90 514.70 L 684.10 511.00 L 685.50 503.90 L 686.70 500.60 L 688.80 496.50 L 691.40 492.60 L 694.50 489.20 L 697.90 486.10 L 701.80 483.50 L 705.90 481.40 L 712.70 479.30 L 720.00 478.60 L 727.30 479.30 L 734.10 481.40 L 738.20 483.50 L 742.10 486.10 L 745.50 489.20 L 748.60 492.60 L 751.20 496.50 L 753.30 500.60 L 755.40 507.40 L 756.10 514.70 Z" fill="#3541df" fill-rule="nonzero" group-id="1,82" node-id="689" stroke="none" target-height="72.19998" target-width="72.19995" target-x="683.9" target-y="478.6"></path><path d="M 720.00 551.90 L 727.50 551.10 L 734.50 549.00 L 738.80 546.80 L 742.70 544.20 L 746.30 541.00 L 749.50 537.40 L 752.10 533.50 L 754.30 529.20 L 756.40 522.20 L 757.20 514.70 L 756.40 507.20 L 754.30 500.20 L 752.10 495.90 L 749.50 492.00 L 746.30 488.40 L 742.70 485.20 L 738.80 482.60 L 734.50 480.40 L 727.50 478.30 L 720.00 477.50 L 712.50 478.30 L 705.50 480.40 L 701.20 482.60 L 697.30 485.20 L 693.70 488.40 L 690.50 492.00 L 687.90 495.90 L 685.70 500.20 L 683.60 507.20 L 682.80 514.70 L 683.60 522.30 L 685.70 529.20 L 687.90 533.50 L 690.50 537.40 L 693.70 541.00 L 697.30 544.20 L 701.20 546.80 L 705.50 549.00 L 712.40 551.10 L 720.00 551.90 Z M 720.00 479.70 L 724.80 480.00 L 729.30 481.00 L 733.60 482.50 L 737.70 484.50 L 741.40 487.00 L 744.70 490.00 L 747.70 493.30 L 750.20 497.00 L 752.20 501.10 L 753.70 505.40 L 754.70 509.90 L 755.00 514.70 L 754.70 519.50 L 753.70 524.00 L 752.20 528.30 L 750.20 532.40 L 747.70 536.10 L 744.70 539.40 L 741.40 542.40 L 737.70 544.90 L 733.60 546.90 L 729.30 548.40 L 724.80 549.40 L 720.00 549.70 L 715.20 549.40 L 710.70 548.40 L 706.40 546.90 L 702.30 544.90 L 698.60 542.40 L 695.30 539.40 L 692.30 536.10 L 689.80 532.40 L 687.80 528.30 L 686.30 524.00 L 685.30 519.50 L 685.00 514.70 L 685.30 509.90 L 686.30 505.40 L 687.80 501.10 L 689.80 497.00 L 692.30 493.30 L 695.30 490.00 L 698.60 487.00 L 702.30 484.50 L 706.40 482.50 L 710.70 481.00 L 715.20 480.00 L 720.00 479.70 Z" fill="#111111" fill-rule="nonzero" group-id="1,83" node-id="694" stroke="none" target-height="74.400024" target-width="74.400024" target-x="682.8" target-y="477.5"></path><path d="M 914.60 532.10 L 914.30 536.80 L 913.40 541.20 L 911.90 545.30 L 909.90 549.30 L 907.50 552.90 L 904.60 556.10 L 901.40 559.00 L 897.80 561.40 L 893.80 563.40 L 889.70 564.90 L 885.30 565.80 L 880.60 566.10 L 875.90 565.80 L 871.50 564.90 L 867.40 563.40 L 863.40 561.40 L 859.80 559.00 L 856.60 556.10 L 853.70 552.90 L 851.30 549.30 L 849.30 545.30 L 847.80 541.20 L 846.90 536.80 L 846.60 532.10 L 846.90 527.40 L 847.80 523.00 L 849.30 518.90 L 851.30 514.90 L 853.70 511.30 L 856.60 508.10 L 859.80 505.20 L 863.40 502.80 L 867.40 500.80 L 871.50 499.30 L 875.90 498.40 L 880.60 498.10 L 885.30 498.40 L 889.70 499.30 L 893.80 500.80 L 897.80 502.80 L 901.40 505.20 L 904.60 508.10 L 907.50 511.30 L 909.90 514.90 L 911.90 518.90 L 913.40 523.00 L 914.30 527.40 L 914.60 532.10 Z" fill="#3541df" fill-rule="nonzero" group-id="1,84" node-id="699" stroke="none" target-height="67.99997" target-width="68" target-x="846.6" target-y="498.1"></path><path d="M 880.60 567.20 L 885.40 566.80 L 890.00 565.90 L 894.20 564.40 L 898.30 562.30 L 902.00 559.80 L 905.40 556.80 L 908.30 553.50 L 910.80 549.70 L 912.90 545.70 L 914.40 541.40 L 915.30 536.80 L 915.60 532.00 L 915.30 527.20 L 914.30 522.60 L 912.80 518.30 L 910.80 514.30 L 908.30 510.60 L 905.30 507.20 L 901.90 504.20 L 898.20 501.70 L 894.20 499.70 L 889.90 498.20 L 885.30 497.20 L 880.50 496.90 L 875.70 497.20 L 871.10 498.10 L 866.80 499.60 L 862.80 501.70 L 859.00 504.20 L 855.70 507.10 L 852.70 510.50 L 850.20 514.20 L 848.10 518.30 L 846.60 522.50 L 845.70 527.10 L 845.30 531.90 L 845.60 536.80 L 846.50 541.30 L 848.10 545.70 L 850.10 549.80 L 852.60 553.50 L 855.60 556.90 L 859.00 559.90 L 862.70 562.40 L 866.80 564.40 L 871.20 566.00 L 875.70 566.90 L 880.60 567.20 Z M 880.60 499.20 L 885.10 499.50 L 889.40 500.40 L 893.40 501.80 L 897.20 503.80 L 900.70 506.10 L 903.90 508.90 L 906.70 512.10 L 909.00 515.60 L 910.90 519.40 L 912.30 523.40 L 913.20 527.70 L 913.50 532.20 L 913.20 536.80 L 912.30 541.00 L 910.90 545.10 L 909.00 548.90 L 906.60 552.40 L 903.80 555.50 L 900.70 558.30 L 897.20 560.70 L 893.40 562.60 L 889.30 564.00 L 885.10 564.90 L 880.50 565.20 L 876.00 564.90 L 871.70 564.00 L 867.70 562.60 L 863.90 560.70 L 860.40 558.40 L 857.20 555.60 L 854.40 552.40 L 852.10 548.90 L 850.10 545.10 L 848.70 541.10 L 847.80 536.80 L 847.50 532.30 L 847.80 527.70 L 848.60 523.50 L 850.10 519.40 L 852.00 515.50 L 854.30 512.00 L 857.10 508.80 L 860.30 506.00 L 863.80 503.70 L 867.70 501.80 L 871.70 500.30 L 876.00 499.50 L 880.60 499.20 Z" fill="#111111" fill-rule="nonzero" group-id="1,85" node-id="704" stroke="none" target-height="70.30002" target-width="70.29999" target-x="845.3" target-y="496.9"></path><path d="M 870.00 451.30 L 814.10 392.80 L 812.50 391.40 L 808.80 389.50 L 804.80 388.90 L 802.80 389.10 L 798.90 390.30 L 797.10 391.50 L 771.50 411.70 L 768.70 414.80 L 767.10 418.60 L 766.70 422.60 L 767.70 426.60 L 812.60 496.40 L 815.70 499.70 L 819.50 501.60 L 823.70 502.10 L 828.00 501.20 L 830.00 500.10 L 868.50 469.80 L 871.50 466.50 L 872.40 464.50 L 873.30 460.40 L 872.70 456.10 L 871.80 454.10 L 870.50 451.60 L 870.00 451.30 Z" fill="#3541df" fill-rule="nonzero" group-id="1,86" node-id="709" stroke="none" target-height="113.20001" target-width="106.599976" target-x="766.7" target-y="388.9"></path><path d="M 823.40 503.10 L 827.90 502.30 L 831.80 500.10 L 869.40 470.40 L 871.20 468.70 L 872.60 466.80 L 873.70 464.70 L 874.30 462.50 L 874.50 457.90 L 874.00 455.60 L 873.10 453.40 L 870.90 450.20 L 815.00 391.70 L 811.40 389.00 L 809.30 388.10 L 805.00 387.50 L 800.70 388.20 L 796.70 390.40 L 771.10 410.60 L 769.40 412.20 L 767.00 415.90 L 766.30 418.00 L 765.90 422.30 L 767.00 426.60 L 768.10 428.70 L 812.00 496.70 L 813.80 498.90 L 816.00 500.70 L 818.50 502.00 L 822.30 503.10 L 823.40 503.10 Z M 869.40 451.90 L 871.70 455.30 L 872.30 457.20 L 872.50 461.10 L 871.40 464.90 L 869.00 468.20 L 828.70 499.60 L 825.00 500.80 L 821.10 500.70 L 817.50 499.30 L 814.40 496.60 L 769.00 426.10 L 768.10 422.40 L 768.40 418.80 L 769.90 415.30 L 772.50 412.50 L 799.70 391.30 L 803.20 390.10 L 806.90 390.10 L 808.70 390.50 L 812.00 392.20 L 813.50 393.50 L 869.40 451.90 Z" fill="#111111" fill-rule="nonzero" group-id="1,87" node-id="714" stroke="none" target-height="115.600006" target-width="108.599976" target-x="765.9" target-y="387.5"></path><path d="M 584.40 875.00 L 585.30 874.40 L 585.30 873.60 L 584.90 872.90 L 579.50 870.60 L 565.20 865.00 L 543.00 857.40 L 529.80 853.50 L 503.80 846.80 L 480.50 842.10 L 468.50 840.10 L 442.70 837.00 L 429.60 836.10 L 416.10 835.60 L 402.30 835.60 L 388.50 836.20 L 374.60 837.40 L 360.50 839.20 L 359.80 839.70 L 359.70 840.50 L 360.10 841.20 L 360.90 841.40 L 374.90 839.60 L 388.80 838.40 L 402.50 837.90 L 416.20 837.90 L 429.60 838.40 L 442.70 839.30 L 468.30 842.40 L 480.30 844.30 L 503.40 849.00 L 529.20 855.60 L 554.70 863.60 L 564.40 867.10 L 584.40 875.00 Z" fill="#111111" fill-rule="nonzero" group-id="1,88" node-id="719" stroke="none" target-height="39.400024" target-width="225.59998" target-x="359.7" target-y="835.6"></path><path d="M 580.90 848.80 L 581.90 848.20 L 581.90 847.20 L 581.40 846.80 L 569.80 841.00 L 558.50 835.80 L 547.40 831.20 L 536.50 827.20 L 525.30 823.50 L 504.00 817.60 L 493.90 815.30 L 480.20 812.70 L 467.30 810.70 L 455.30 809.30 L 443.10 808.30 L 422.20 807.60 L 407.80 807.80 L 386.20 809.40 L 373.30 811.30 L 372.40 812.10 L 372.70 813.20 L 373.10 813.50 L 386.50 811.70 L 396.70 810.70 L 407.90 810.10 L 422.20 809.90 L 443.00 810.60 L 455.00 811.60 L 466.90 813.00 L 479.70 815.00 L 493.40 817.60 L 503.40 819.90 L 524.60 825.80 L 535.70 829.40 L 546.50 833.40 L 557.50 837.90 L 568.80 843.10 L 580.30 848.80 L 580.90 848.80 Z" fill="#111111" fill-rule="nonzero" group-id="1,89" node-id="724" stroke="none" target-height="41.200012" target-width="209.50003" target-x="372.4" target-y="807.6"></path><path d="M 636.40 879.50 L 657.50 870.90 L 667.90 867.30 L 681.10 863.20 L 700.60 858.10 L 712.00 855.60 L 723.40 853.50 L 735.70 851.60 L 748.90 850.00 L 762.20 848.90 L 776.10 848.30 L 790.80 848.30 L 801.80 848.60 L 813.00 849.40 L 837.00 852.20 L 837.70 851.70 L 837.90 850.80 L 836.90 850.00 L 813.30 847.20 L 791.00 846.10 L 776.20 846.20 L 762.10 846.80 L 748.80 847.90 L 735.50 849.40 L 723.10 851.30 L 711.60 853.50 L 700.10 856.00 L 680.50 861.10 L 667.20 865.20 L 647.50 872.40 L 635.90 877.50 L 635.50 877.80 L 635.30 878.60 L 635.90 879.40 L 636.40 879.50 Z" fill="#111111" fill-rule="nonzero" group-id="1,90" node-id="729" stroke="none" target-height="33.400024" target-width="202.60004" target-x="635.3" target-y="846.1"></path><path d="M 692.70 835.90 L 712.30 832.00 L 721.70 830.50 L 735.80 828.90 L 748.80 827.90 L 761.40 827.40 L 783.00 827.50 L 791.40 827.80 L 809.30 829.20 L 810.20 828.30 L 809.60 827.20 L 804.40 826.50 L 783.30 825.30 L 761.60 825.20 L 748.90 825.70 L 735.80 826.70 L 721.70 828.30 L 712.20 829.80 L 692.70 833.70 L 692.00 834.20 L 691.80 835.00 L 692.00 835.70 L 692.70 835.90 Z" fill="#111111" fill-rule="nonzero" group-id="1,91" node-id="734" stroke="none" target-height="10.700012" target-width="118.400024" target-x="691.8" target-y="825.2"></path><path d="M 119.20 665.80 L 119.20 787.90 L 119.50 792.00 L 120.20 795.90 L 121.50 799.60 L 123.30 803.00 L 125.40 806.20 L 127.90 809.10 L 130.80 811.60 L 134.00 813.70 L 137.40 815.50 L 141.10 816.80 L 145.00 817.50 L 149.10 817.80 L 233.40 817.80 L 237.50 817.50 L 241.40 816.80 L 245.10 815.50 L 248.50 813.70 L 251.70 811.60 L 254.60 809.10 L 257.10 806.20 L 259.20 803.00 L 261.00 799.60 L 262.30 795.90 L 263.00 792.00 L 263.30 787.90 L 263.30 665.80 L 119.20 665.80 Z" fill="#ffffff" fill-rule="nonzero" group-id="1,92" node-id="739" stroke="none" target-height="152" target-width="144.09999" target-x="119.2" target-y="665.8"></path><path d="M 149.30 818.90 L 233.60 818.90 L 237.90 818.60 L 241.90 817.80 L 245.70 816.50 L 249.30 814.70 L 252.50 812.40 L 255.50 809.80 L 258.10 806.80 L 260.40 803.60 L 262.20 800.00 L 263.50 796.20 L 264.30 792.20 L 264.60 787.90 L 264.60 665.80 L 264.30 665.00 L 263.50 664.70 L 119.30 664.70 L 118.50 665.00 L 118.20 665.80 L 118.20 787.90 L 118.50 792.10 L 119.30 796.10 L 120.60 799.90 L 122.40 803.50 L 124.60 806.70 L 127.30 809.70 L 130.30 812.30 L 133.50 814.50 L 137.20 816.40 L 141.00 817.70 L 145.00 818.60 L 149.30 818.90 Z M 262.30 666.90 L 262.30 787.90 L 262.00 791.90 L 261.30 795.60 L 260.00 799.10 L 258.40 802.50 L 256.30 805.50 L 253.90 808.30 L 251.10 810.70 L 248.10 812.80 L 244.70 814.40 L 241.20 815.70 L 237.50 816.40 L 233.50 816.70 L 149.20 816.70 L 145.20 816.40 L 141.50 815.70 L 138.00 814.40 L 134.60 812.80 L 131.60 810.70 L 128.80 808.30 L 126.40 805.50 L 124.30 802.50 L 122.70 799.10 L 121.40 795.60 L 120.70 791.90 L 120.40 787.90 L 120.40 666.90 L 262.30 666.90 Z" fill="#6b6765" fill-rule="nonzero" group-id="1,93" node-id="744" stroke="none" target-height="154.20001" target-width="146.40001" target-x="118.2" target-y="664.7"></path><path d="M 119.20 665.80 L 119.50 666.80 L 120.70 667.90 L 123.10 669.20 L 127.30 670.60 L 133.80 672.20 L 141.80 673.50 L 149.80 674.50 L 161.90 675.50 L 188.10 676.20 L 207.50 676.00 L 223.00 675.30 L 245.60 672.90 L 251.50 671.80 L 259.30 669.70 L 261.80 668.60 L 263.30 667.60 L 264.10 666.70 L 264.30 665.80 L 264.00 664.90 L 263.00 663.90 L 260.80 662.70 L 257.00 661.30 L 251.00 659.80 L 243.70 658.50 L 225.00 656.40 L 202.00 655.30 L 178.00 655.50 L 153.10 656.90 L 146.50 657.60 L 135.30 659.20 L 124.90 661.80 L 121.90 662.90 L 120.20 664.00 L 119.40 664.90 L 119.20 665.80 Z" fill="#ffffff" fill-rule="nonzero" group-id="1,94" node-id="749" stroke="none" target-height="20.900024" target-width="145.09999" target-x="119.2" target-y="655.3"></path><path d="M 191.60 677.40 L 206.90 677.20 L 222.80 676.50 L 235.00 675.40 L 245.40 674.10 L 252.30 672.80 L 256.80 671.70 L 262.70 669.30 L 264.90 667.30 L 265.20 666.40 L 265.10 665.00 L 264.30 663.80 L 263.10 662.70 L 260.30 661.40 L 256.80 660.20 L 251.00 658.80 L 243.70 657.50 L 236.30 656.50 L 226.10 655.60 L 202.00 654.50 L 182.50 654.50 L 168.50 655.10 L 152.80 656.10 L 134.90 658.40 L 124.40 660.80 L 121.60 662.00 L 119.90 663.10 L 118.50 664.80 L 118.50 666.60 L 119.30 667.90 L 120.70 669.00 L 123.70 670.40 L 127.50 671.70 L 133.90 673.20 L 141.90 674.50 L 158.00 676.20 L 191.60 677.40 Z M 192.50 656.40 L 201.50 656.40 L 219.00 657.10 L 228.40 657.70 L 239.30 658.90 L 250.30 660.70 L 257.90 662.60 L 261.80 664.40 L 262.60 665.20 L 262.60 666.00 L 259.40 668.00 L 251.50 670.40 L 237.60 672.70 L 230.10 673.50 L 206.80 674.90 L 191.40 675.10 L 175.20 674.90 L 157.50 674.10 L 149.50 673.40 L 133.60 671.10 L 128.60 670.00 L 122.50 667.90 L 120.00 666.20 L 119.80 665.70 L 120.30 664.80 L 124.30 662.70 L 129.40 661.30 L 134.60 660.10 L 145.90 658.50 L 168.00 656.80 L 187.10 656.20 L 192.50 656.40 Z" fill="#6b6765" fill-rule="nonzero" group-id="1,95" node-id="754" stroke="none" target-height="22.900024" target-width="146.70001" target-x="118.5" target-y="654.5"></path><path d="M 175.50 676.20 L 191.70 676.40 L 208.30 676.10 L 222.90 675.30 L 237.00 535.60 L 190.40 530.90 L 175.50 676.20 Z" fill="#ffffff" fill-rule="nonzero" group-id="1,96" node-id="759" stroke="none" target-height="145.5" target-width="61.5" target-x="175.5" target-y="530.9"></path><path d="M 191.60 677.40 L 207.90 677.10 L 222.80 676.30 L 223.50 675.90 L 223.90 675.20 L 238.00 535.60 L 237.80 534.70 L 237.20 534.30 L 190.60 529.60 L 189.90 529.80 L 189.50 530.50 L 174.70 675.60 L 174.90 676.50 L 175.80 676.90 L 191.60 677.40 Z M 221.70 674.20 L 207.20 674.90 L 191.60 675.10 L 176.70 674.90 L 191.30 531.90 L 235.80 536.40 L 221.70 674.20 Z" fill="#6b6765" fill-rule="nonzero" group-id="1,97" node-id="764" stroke="none" target-height="147.80005" target-width="63.300003" target-x="174.7" target-y="529.6"></path><path d="M 200.60 541.60 L 201.60 541.00 L 201.60 540.00 L 201.10 539.50 L 194.80 538.80 L 194.10 539.00 L 193.70 539.70 L 193.90 540.40 L 194.60 540.80 L 200.60 541.60 Z" fill="#6b6765" fill-rule="nonzero" group-id="1,98" node-id="769" stroke="none" target-height="2.7999878" target-width="7.900009" target-x="193.7" target-y="538.8"></path><path d="M 200.00 548.90 L 200.70 548.70 L 201.10 548.00 L 200.90 547.30 L 200.20 546.90 L 194.40 546.30 L 193.70 546.50 L 193.30 547.20 L 193.60 548.00 L 194.40 548.50 L 200.00 548.90 Z" fill="#6b6765" fill-rule="nonzero" group-id="1,99" node-id="774" stroke="none" target-height="2.6000366" target-width="7.800003" target-x="193.3" target-y="546.3"></path><path d="M 199.10 556.20 L 199.80 556.00 L 200.20 555.30 L 199.90 554.50 L 199.30 554.00 L 193.50 553.40 L 192.70 553.70 L 192.20 554.30 L 192.40 555.00 L 193.10 555.60 L 199.10 556.20 Z" fill="#6b6765" fill-rule="nonzero" group-id="1,100" node-id="779" stroke="none" target-height="2.7999878" target-width="8" target-x="192.2" target-y="553.4"></path><path d="M 198.50 563.50 L 199.50 562.90 L 199.50 561.90 L 199.00 561.40 L 192.70 560.70 L 191.90 561.00 L 191.40 561.60 L 191.70 562.40 L 192.50 562.90 L 198.50 563.50 Z" fill="#6b6765" fill-rule="nonzero" group-id="1,101" node-id="784" stroke="none" target-height="2.7999878" target-width="8.100006" target-x="191.4" target-y="560.7"></path><path d="M 203.00 571.30 L 204.00 570.70 L 204.00 569.70 L 203.50 569.20 L 192.00 568.00 L 191.30 568.20 L 190.90 568.90 L 191.20 569.70 L 192.00 570.20 L 203.00 571.30 Z" fill="#6b6765" fill-rule="nonzero" group-id="1,102" node-id="789" stroke="none" target-height="3.2999878" target-width="13.100006" target-x="190.9" target-y="568"></path><path d="M 197.00 577.30 L 198.00 576.70 L 198.00 575.70 L 197.50 575.20 L 191.20 574.50 L 190.50 574.70 L 190.10 575.40 L 190.30 576.10 L 191.00 576.50 L 197.00 577.30 Z" fill="#6b6765" fill-rule="nonzero" group-id="1,103" node-id="794" stroke="none" target-height="2.7999878" target-width="7.899994" target-x="190.1" target-y="574.5"></path><path d="M 196.30 584.60 L 197.30 583.90 L 197.30 583.10 L 196.70 582.50 L 190.50 581.80 L 189.80 582.00 L 189.40 582.70 L 189.70 583.50 L 190.30 584.00 L 196.30 584.60 Z" fill="#6b6765" fill-rule="nonzero" group-id="1,104" node-id="799" stroke="none" target-height="2.7999878" target-width="7.900009" target-x="189.4" target-y="581.8"></path><path d="M 195.70 591.90 L 196.70 591.30 L 196.70 590.30 L 196.20 589.80 L 189.90 589.10 L 189.10 589.40 L 188.60 590.00 L 188.80 590.70 L 189.50 591.30 L 195.70 591.90 Z" fill="#6b6765" fill-rule="nonzero" group-id="1,105" node-id="804" stroke="none" target-height="2.8000488" target-width="8.099991" target-x="188.6" target-y="589.1"></path><path d="M 200.00 599.60 L 200.80 599.30 L 201.10 598.50 L 200.90 597.80 L 200.20 597.40 L 189.20 596.30 L 188.40 596.60 L 187.90 597.20 L 188.20 598.00 L 189.00 598.50 L 200.00 599.60 Z" fill="#6b6765" fill-rule="nonzero" group-id="1,106" node-id="809" stroke="none" target-height="3.2999878" target-width="13.200012" target-x="187.9" target-y="596.3"></path><path d="M 194.20 605.60 L 195.00 605.30 L 195.30 604.50 L 195.00 603.70 L 194.20 603.40 L 188.40 602.80 L 187.70 603.00 L 187.30 603.70 L 187.50 604.40 L 188.20 604.80 L 194.20 605.60 Z" fill="#6b6765" fill-rule="nonzero" group-id="1,107" node-id="814" stroke="none" target-height="2.7999878" target-width="8" target-x="187.3" target-y="602.8"></path><path d="M 193.50 613.00 L 194.50 612.40 L 194.50 611.40 L 194.00 610.90 L 187.70 610.20 L 186.90 610.50 L 186.40 611.10 L 186.70 611.90 L 187.50 612.40 L 193.50 613.00 Z" fill="#6b6765" fill-rule="nonzero" group-id="1,108" node-id="819" stroke="none" target-height="2.7999878" target-width="8.100006" target-x="186.4" target-y="610.2"></path><path d="M 192.70 620.30 L 193.50 620.00 L 193.80 619.20 L 193.60 618.50 L 192.90 618.10 L 187.10 617.50 L 186.40 617.70 L 186.00 618.40 L 186.60 619.40 L 192.70 620.30 Z" fill="#6b6765" fill-rule="nonzero" group-id="1,109" node-id="824" stroke="none" target-height="2.7999878" target-width="7.800003" target-x="186" target-y="617.5"></path><path d="M 197.20 628.00 L 198.00 627.70 L 198.30 626.90 L 198.10 626.20 L 197.40 625.80 L 186.40 624.70 L 185.60 625.00 L 185.30 625.80 L 185.50 626.50 L 186.20 626.90 L 197.20 628.00 Z" fill="#6b6765" fill-rule="nonzero" group-id="1,110" node-id="829" stroke="none" target-height="3.2999878" target-width="13" target-x="185.3" target-y="624.7"></path><path d="M 191.40 634.00 L 192.20 633.70 L 192.50 632.90 L 192.30 632.20 L 191.60 631.80 L 185.80 631.20 L 185.10 631.40 L 184.70 632.10 L 184.90 632.80 L 185.60 633.20 L 191.40 634.00 Z" fill="#6b6765" fill-rule="nonzero" group-id="1,111" node-id="834" stroke="none" target-height="2.7999878" target-width="7.800003" target-x="184.7" target-y="631.2"></path><path d="M 190.50 641.30 L 191.30 641.00 L 191.60 640.20 L 191.30 639.40 L 190.70 639.10 L 184.90 638.50 L 184.20 638.70 L 183.80 639.40 L 184.00 640.10 L 184.70 640.50 L 190.50 641.30 Z" fill="#6b6765" fill-rule="nonzero" group-id="1,112" node-id="839" stroke="none" target-height="2.7999878" target-width="7.800003" target-x="183.8" target-y="638.5"></path><path d="M 189.90 648.60 L 190.70 648.30 L 191.00 647.50 L 190.70 646.70 L 190.10 646.40 L 184.30 645.80 L 183.60 646.00 L 183.20 646.70 L 183.40 647.40 L 184.10 647.80 L 189.90 648.60 Z" fill="#6b6765" fill-rule="nonzero" group-id="1,113" node-id="844" stroke="none" target-height="2.7999878" target-width="7.800003" target-x="183.2" target-y="645.8"></path><path d="M 194.20 656.40 L 195.00 656.10 L 195.30 655.30 L 195.00 654.50 L 194.20 654.20 L 183.20 653.10 L 182.50 653.30 L 182.10 654.00 L 182.30 654.70 L 183.00 655.10 L 194.20 656.40 Z" fill="#6b6765" fill-rule="nonzero" group-id="1,114" node-id="849" stroke="none" target-height="3.3000488" target-width="13.199997" target-x="182.1" target-y="653.1"></path><path d="M 188.40 662.40 L 189.20 662.10 L 189.50 661.30 L 189.30 660.60 L 188.60 660.20 L 182.80 659.60 L 182.00 659.90 L 181.50 660.50 L 181.80 661.30 L 182.60 661.80 L 188.40 662.40 Z" fill="#6b6765" fill-rule="nonzero" group-id="1,115" node-id="854" stroke="none" target-height="2.8000488" target-width="8" target-x="181.5" target-y="659.6"></path><path d="M 187.70 669.70 L 188.50 669.40 L 188.80 668.60 L 188.50 667.80 L 187.70 667.50 L 181.90 666.90 L 181.20 667.10 L 180.80 667.80 L 181.40 668.80 L 187.70 669.70 Z" fill="#6b6765" fill-rule="nonzero" group-id="1,116" node-id="859" stroke="none" target-height="2.7999878" target-width="8" target-x="180.8" target-y="666.9"></path><path d="M 186.90 677.00 L 187.70 676.70 L 188.00 675.90 L 187.70 675.10 L 187.10 674.80 L 181.30 674.20 L 180.60 674.40 L 180.20 675.10 L 180.40 675.80 L 181.10 676.20 L 186.90 677.00 Z" fill="#6b6765" fill-rule="nonzero" group-id="1,117" node-id="864" stroke="none" target-height="2.7999878" target-width="7.800003" target-x="180.2" target-y="674.2"></path><path d="M 145.40 569.10 L 160.70 673.60 L 179.80 670.80 L 164.30 566.30 L 145.40 569.10 Z" fill="#ffffff" fill-rule="nonzero" group-id="1,118" node-id="869" stroke="none" target-height="107.29999" target-width="34.40001" target-x="145.4" target-y="566.3"></path><path d="M 143.00 552.50 L 145.10 566.90 L 164.20 564.10 L 161.60 548.00 L 160.00 545.10 L 158.20 543.40 L 156.10 542.20 L 152.90 541.50 L 151.10 541.50 L 149.30 542.00 L 146.10 543.90 L 143.80 547.00 L 143.20 548.70 L 142.90 550.60 L 143.00 552.50 Z" fill="#ffffff" fill-rule="nonzero" group-id="1,119" node-id="874" stroke="none" target-height="25.400024" target-width="21.300003" target-x="142.9" target-y="541.5"></path><path d="M 159.80 675.90 L 181.10 672.70 L 182.00 671.90 L 166.30 564.80 L 165.50 563.90 L 143.70 566.90 L 143.10 567.30 L 142.90 568.20 L 158.60 674.80 L 159.80 675.90 Z M 179.80 670.80 L 160.70 673.60 L 145.20 569.10 L 164.30 566.30 L 179.80 670.80 Z" fill="#6b6765" fill-rule="nonzero" group-id="1,120" node-id="879" stroke="none" target-height="112" target-width="39.100006" target-x="142.9" target-y="563.9"></path><path d="M 144.10 569.30 L 165.60 566.10 L 166.40 565.40 L 163.50 547.20 L 161.60 543.60 L 158.60 541.00 L 154.90 539.50 L 152.90 539.30 L 150.70 539.40 L 148.60 539.90 L 145.00 541.90 L 143.60 543.30 L 141.50 546.70 L 140.60 550.60 L 140.80 552.70 L 143.20 568.20 L 143.40 568.90 L 144.10 569.30 Z M 164.10 564.20 L 145.00 567.00 L 142.90 552.60 L 143.00 548.90 L 144.60 545.50 L 145.90 544.10 L 149.10 542.10 L 151.00 541.60 L 152.80 541.50 L 156.00 542.20 L 158.20 543.40 L 160.00 545.10 L 160.90 546.50 L 162.00 549.80 L 164.10 564.20 Z" fill="#6b6765" fill-rule="nonzero" group-id="1,121" node-id="884" stroke="none" target-height="30" target-width="25.799988" target-x="140.6" target-y="539.3"></path><path d="M 158.70 656.40 L 159.60 640.50 L 162.40 627.20 L 164.70 619.90 L 167.10 613.80 L 169.80 608.60 L 172.70 604.30 L 175.40 601.00 L 178.30 598.40 L 181.20 596.40 L 184.20 594.90 L 187.30 594.00 L 190.50 593.50 L 193.80 593.60 L 197.40 594.30 L 201.10 595.70 L 205.20 597.70 L 207.30 599.20 L 210.50 602.90 L 211.60 605.20 L 212.70 608.40 L 213.40 611.90 L 213.40 619.90 L 211.90 628.70 L 210.10 635.40 L 207.70 642.30 L 204.90 649.00 L 198.80 661.00 L 195.50 666.40 L 191.70 671.50 L 187.60 676.40 L 176.50 676.30 L 157.70 675.40 L 158.70 656.40 Z M 178.50 662.80 L 179.90 662.70 L 181.40 662.10 L 183.10 661.00 L 185.20 658.60 L 187.50 655.30 L 189.50 651.40 L 193.20 642.10 L 195.80 632.10 L 196.90 623.00 L 196.50 617.00 L 195.20 614.00 L 192.40 613.50 L 190.20 613.60 L 188.30 614.30 L 184.80 617.10 L 183.20 619.30 L 178.40 627.50 L 175.90 633.30 L 173.80 640.70 L 173.00 644.60 L 172.50 652.20 L 172.80 655.40 L 173.60 658.40 L 174.80 660.50 L 175.80 661.60 L 177.00 662.40 L 178.50 662.80 Z" fill="#3541df" fill-rule="nonzero" group-id="1,122" node-id="889" stroke="none" target-height="82.900024" target-width="55.699997" target-x="157.7" target-y="593.5"></path><path d="M 157.70 675.90 L 157.30 675.40 L 159.20 640.50 L 162.00 627.20 L 164.40 619.50 L 167.00 613.10 L 169.80 607.70 L 172.80 603.40 L 176.00 599.90 L 179.30 597.20 L 182.70 595.10 L 186.10 593.80 L 189.60 593.10 L 193.30 593.10 L 197.10 593.80 L 201.10 595.10 L 205.50 597.40 L 208.10 599.30 L 210.20 601.60 L 211.90 604.40 L 213.20 607.80 L 213.90 611.80 L 214.10 616.60 L 213.70 622.30 L 212.70 628.10 L 211.10 634.30 L 208.90 641.00 L 206.00 648.00 L 199.30 661.30 L 195.90 666.70 L 192.10 671.80 L 187.80 676.90 L 176.20 676.70 L 157.70 675.90 Z M 158.20 674.90 L 176.10 675.70 L 187.40 675.90 L 191.40 671.00 L 195.10 665.90 L 198.40 660.60 L 205.00 647.50 L 207.90 640.50 L 210.10 633.90 L 211.70 627.80 L 212.70 622.10 L 213.10 616.50 L 212.90 611.80 L 212.20 608.00 L 211.00 604.80 L 209.40 602.10 L 207.40 599.90 L 205.00 598.10 L 200.80 595.90 L 196.80 594.60 L 193.20 594.00 L 189.70 594.00 L 186.30 594.60 L 183.10 595.90 L 179.80 597.80 L 176.50 600.50 L 173.40 604.00 L 170.50 608.20 L 167.80 613.40 L 165.20 619.70 L 162.90 627.20 L 160.10 640.50 L 158.20 674.90 Z M 178.40 663.30 L 176.80 662.80 L 175.40 661.90 L 174.10 660.50 L 173.10 658.40 L 172.30 655.50 L 172.00 651.50 L 172.20 646.60 L 173.30 640.50 L 174.50 635.90 L 176.00 631.50 L 178.00 627.20 L 182.10 620.30 L 185.80 615.50 L 187.90 614.00 L 190.20 613.20 L 192.60 613.00 L 195.70 613.70 L 196.60 615.40 L 197.30 617.80 L 197.60 621.20 L 197.30 625.90 L 196.30 632.30 L 194.90 638.40 L 193.10 644.30 L 190.80 650.00 L 188.00 655.60 L 185.60 659.00 L 183.50 661.30 L 181.70 662.60 L 180.00 663.20 L 178.40 663.30 Z M 173.30 655.30 L 174.20 658.50 L 175.40 660.50 L 176.90 661.70 L 178.60 662.30 L 180.30 662.10 L 182.20 661.10 L 184.40 658.90 L 187.10 655.00 L 189.80 649.50 L 192.10 643.90 L 193.90 638.10 L 195.30 632.10 L 196.10 626.60 L 196.40 621.20 L 196.20 618.00 L 195.60 615.80 L 194.90 614.40 L 192.60 613.90 L 190.40 614.10 L 188.30 614.90 L 186.40 616.20 L 182.80 620.90 L 178.80 627.70 L 176.90 631.90 L 175.30 636.20 L 174.20 640.70 L 173.20 646.70 L 172.90 651.50 L 173.30 655.30 Z" fill="#3541df" fill-rule="evenodd" group-id="1,123" node-id="894" stroke="none" target-height="83.80005" target-width="56.800003" target-x="157.3" target-y="593.1"></path><path d="M 143.20 603.50 L 147.30 606.60 L 151.10 610.00 L 154.50 613.90 L 157.60 618.00 L 160.10 622.40 L 164.10 631.70 L 166.70 641.20 L 168.00 651.00 L 168.10 655.90 L 167.80 662.60 L 167.00 669.20 L 165.70 675.70 L 149.40 674.60 L 133.40 672.30 L 128.60 667.30 L 120.20 656.80 L 116.30 650.90 L 111.70 642.40 L 109.90 638.00 L 108.40 633.40 L 107.40 628.80 L 107.00 624.20 L 107.10 619.10 L 107.60 614.80 L 108.50 611.20 L 109.70 608.20 L 111.40 605.20 L 113.30 602.90 L 115.50 601.00 L 117.90 599.60 L 120.60 598.60 L 123.40 598.00 L 126.40 597.80 L 129.70 598.10 L 132.90 598.80 L 139.60 601.50 L 143.20 603.50 Z M 125.40 638.70 L 128.50 644.10 L 132.00 649.10 L 135.90 653.90 L 140.20 658.30 L 146.40 663.90 L 147.80 664.70 L 149.40 664.90 L 150.90 664.50 L 152.20 663.50 L 153.10 661.90 L 152.70 656.90 L 149.00 639.60 L 145.30 628.50 L 143.10 624.10 L 141.40 621.40 L 139.70 619.50 L 137.90 618.20 L 134.70 616.80 L 132.00 616.20 L 129.60 616.20 L 127.30 616.70 L 125.40 617.70 L 123.90 619.30 L 122.80 621.30 L 122.20 623.80 L 122.10 627.10 L 122.50 630.30 L 123.60 634.10 L 125.40 638.70 Z" fill="#3541df" fill-rule="nonzero" group-id="1,124" node-id="899" stroke="none" target-height="77.900024" target-width="61.100006" target-x="107" target-y="597.8"></path><path d="M 106.50 624.20 L 106.60 619.30 L 107.10 615.00 L 108.00 611.20 L 109.30 607.90 L 110.80 605.20 L 112.70 602.80 L 115.00 600.70 L 117.70 599.10 L 120.60 598.00 L 123.70 597.40 L 126.70 597.30 L 129.80 597.60 L 136.90 599.60 L 143.50 603.10 L 147.70 606.20 L 151.50 609.70 L 155.00 613.50 L 158.00 617.70 L 160.60 622.10 L 164.60 631.60 L 166.00 636.30 L 168.00 646.00 L 168.60 655.90 L 168.30 662.60 L 167.50 669.20 L 166.10 676.10 L 149.40 675.00 L 133.40 672.70 L 128.30 667.50 L 123.90 662.20 L 118.20 654.70 L 113.80 647.70 L 110.60 641.30 L 108.40 635.20 L 107.00 629.60 L 106.50 624.20 Z M 110.20 608.40 L 108.90 611.50 L 108.10 615.20 L 107.60 619.40 L 107.50 624.20 L 108.00 629.40 L 109.30 635.00 L 111.50 640.90 L 114.70 647.30 L 119.00 654.20 L 124.60 661.70 L 128.90 666.90 L 133.60 671.80 L 149.50 674.10 L 165.30 675.20 L 166.50 668.80 L 167.30 662.40 L 167.50 655.90 L 167.40 651.00 L 166.20 641.30 L 163.60 631.90 L 161.80 627.30 L 159.70 622.70 L 157.10 618.30 L 154.10 614.20 L 150.80 610.40 L 147.00 607.00 L 142.90 604.00 L 136.50 600.60 L 129.60 598.70 L 126.70 598.30 L 123.70 598.50 L 120.90 599.00 L 118.10 600.10 L 115.60 601.60 L 113.40 603.50 L 111.60 605.80 L 110.20 608.40 Z M 129.50 615.70 L 132.50 615.80 L 135.40 616.50 L 138.10 617.80 L 140.10 619.20 L 142.10 621.50 L 144.20 624.90 L 146.40 629.80 L 148.70 636.40 L 150.90 645.30 L 153.20 656.80 L 153.70 661.00 L 153.20 662.90 L 152.60 663.80 L 151.70 664.60 L 149.40 665.30 L 148.20 665.30 L 146.10 664.20 L 139.90 658.60 L 135.50 654.10 L 131.60 649.40 L 128.10 644.30 L 125.00 638.90 L 123.40 635.10 L 122.30 631.20 L 121.60 627.10 L 121.90 622.90 L 123.50 619.10 L 124.70 617.70 L 127.80 616.00 L 129.50 615.70 Z M 137.70 618.70 L 139.30 619.90 L 141.00 621.80 L 142.80 624.60 L 144.80 628.60 L 146.80 634.10 L 150.80 649.30 L 152.70 661.30 L 151.90 663.20 L 150.70 664.10 L 149.40 664.40 L 148.00 664.30 L 146.70 663.60 L 140.60 658.00 L 136.30 653.60 L 132.40 648.90 L 129.00 643.90 L 125.90 638.60 L 124.30 634.90 L 123.20 631.10 L 122.60 625.20 L 123.40 621.40 L 124.30 619.70 L 126.60 617.60 L 129.60 616.70 L 132.50 616.80 L 135.10 617.50 L 137.70 618.70 Z" fill="#3541df" fill-rule="evenodd" group-id="1,125" node-id="904" stroke="none" target-height="78.79999" target-width="62.100006" target-x="106.5" target-y="597.3"></path><path d="M 221.10 676.60 L 235.00 675.50 L 245.40 674.20 L 246.30 673.60 L 270.90 613.00 L 270.90 612.10 L 270.30 611.50 L 250.50 603.30 L 249.70 603.30 L 249.20 603.90 L 220.20 675.10 L 220.40 676.20 L 221.10 676.60 Z M 244.50 671.90 L 234.40 673.20 L 222.80 674.30 L 250.70 605.70 L 268.50 613.00 L 244.50 671.90 Z" fill="#ffffff" fill-rule="nonzero" group-id="1,126" node-id="909" stroke="none" target-height="73.29999" target-width="50.699997" target-x="220.2" target-y="603.3"></path><path d="M 256.10 589.70 L 250.10 604.30 L 269.90 612.50 L 275.90 598.10 L 276.40 596.20 L 276.30 592.50 L 274.90 589.10 L 272.40 586.30 L 270.80 585.30 L 267.30 584.10 L 265.60 583.90 L 264.00 584.00 L 261.50 584.60 L 259.40 585.80 L 257.00 588.20 L 256.10 589.70 Z" fill="#ffffff" fill-rule="nonzero" group-id="1,127" node-id="914" stroke="none" target-height="28.599976" target-width="26.299988" target-x="250.1" target-y="583.9"></path><path d="M 270.10 613.40 L 271.20 612.80 L 277.20 598.40 L 277.90 596.20 L 278.20 593.90 L 277.90 591.60 L 276.10 587.30 L 274.70 585.50 L 272.90 584.10 L 268.60 582.30 L 266.30 582.00 L 264.00 582.30 L 259.70 584.00 L 257.90 585.50 L 256.40 587.30 L 249.30 604.30 L 250.00 605.30 L 270.00 613.70 L 270.10 613.40 Z M 266.00 584.10 L 267.90 584.30 L 271.30 585.80 L 273.90 588.40 L 275.40 591.90 L 275.60 593.70 L 275.40 595.60 L 269.20 610.90 L 251.40 603.60 L 257.90 588.40 L 260.50 585.80 L 264.10 584.30 L 266.00 584.10 Z" fill="#ffffff" fill-rule="nonzero" group-id="1,128" node-id="919" stroke="none" target-height="31.700012" target-width="28.90001" target-x="249.3" target-y="582"></path><path d="M 221.10 676.60 L 235.00 675.50 L 245.40 674.20 L 246.30 673.60 L 270.90 613.00 L 270.90 612.10 L 270.30 611.50 L 250.50 603.30 L 249.70 603.30 L 249.20 603.90 L 220.20 675.10 L 220.40 676.20 L 221.10 676.60 Z M 244.50 671.90 L 234.40 673.20 L 222.80 674.30 L 250.70 605.70 L 268.50 613.00 L 244.50 671.90 Z" fill="#6b6765" fill-rule="nonzero" group-id="1,129" node-id="924" stroke="none" target-height="73.29999" target-width="50.699997" target-x="220.2" target-y="603.3"></path><path d="M 256.10 589.70 L 250.10 604.30 L 269.90 612.50 L 275.90 598.10 L 276.40 596.20 L 276.30 592.50 L 274.90 589.10 L 272.40 586.30 L 270.80 585.30 L 267.30 584.10 L 265.60 583.90 L 264.00 584.00 L 261.50 584.60 L 259.40 585.80 L 257.00 588.20 L 256.10 589.70 Z" fill="#3541df" fill-rule="nonzero" group-id="1,130" node-id="929" stroke="none" target-height="28.599976" target-width="26.299988" target-x="250.1" target-y="583.9"></path><path d="M 270.10 613.40 L 271.20 612.80 L 277.20 598.40 L 277.90 596.20 L 278.20 593.90 L 277.90 591.60 L 276.10 587.30 L 274.70 585.50 L 272.90 584.10 L 268.60 582.30 L 266.30 582.00 L 264.00 582.30 L 259.70 584.00 L 257.90 585.50 L 256.40 587.30 L 249.30 604.30 L 250.00 605.30 L 270.00 613.70 L 270.10 613.40 Z M 266.00 584.10 L 267.90 584.30 L 271.30 585.80 L 273.90 588.40 L 275.40 591.90 L 275.60 593.70 L 275.40 595.60 L 269.20 610.90 L 251.40 603.60 L 257.90 588.40 L 260.50 585.80 L 264.10 584.30 L 266.00 584.10 Z" fill="#6b6765" fill-rule="nonzero" group-id="1,131" node-id="934" stroke="none" target-height="31.700012" target-width="28.90001" target-x="249.3" target-y="582"></path><path d="M 244.50 671.90 L 268.60 612.80 L 250.80 605.50 L 222.90 674.10 L 237.30 672.90 L 244.50 671.90 Z" fill="#6b6765" fill-rule="nonzero" group-id="1,132" node-id="939" stroke="none" target-height="68.599976" target-width="45.700012" target-x="222.9" target-y="605.5"></path><path d="M 222.80 674.20 L 233.70 673.30 L 244.50 671.80 L 268.60 612.70 L 250.80 605.40 L 222.80 674.20 Z" fill="#ffffff" fill-rule="nonzero" group-id="1,133" node-id="944" stroke="none" target-height="68.79999" target-width="45.800003" target-x="222.8" target-y="605.4"></path><path d="M 269.20 584.10 L 267.30 583.50 L 263.30 583.50 L 259.60 585.00 L 258.00 586.30 L 255.70 589.50 L 249.70 604.60 L 269.70 612.90 L 270.30 612.80 L 276.30 598.30 L 276.80 596.10 L 276.90 593.90 L 276.50 591.80 L 274.50 587.80 L 273.00 586.20 L 271.20 585.00 L 269.20 584.10 Z M 268.90 585.10 L 267.10 584.60 L 263.50 584.60 L 260.20 586.00 L 258.70 587.10 L 256.60 590.00 L 250.80 604.00 L 269.60 611.80 L 275.40 597.90 L 275.90 595.90 L 276.00 593.90 L 275.60 592.00 L 273.80 588.40 L 272.40 586.90 L 270.80 585.80 L 268.90 585.10 Z" fill="#3541df" fill-rule="evenodd" group-id="1,134" node-id="949" stroke="none" target-height="29.400024" target-width="27.199997" target-x="249.7" target-y="583.5"></path><path d="M 270.10 613.40 L 271.20 612.80 L 277.20 598.40 L 277.90 596.20 L 278.20 593.90 L 277.90 591.60 L 276.10 587.30 L 274.70 585.50 L 272.90 584.10 L 268.60 582.30 L 266.30 582.00 L 264.00 582.30 L 259.70 584.00 L 257.90 585.50 L 256.40 587.30 L 249.30 604.30 L 250.00 605.30 L 270.00 613.70 L 270.10 613.40 Z M 266.00 584.10 L 267.90 584.30 L 271.30 585.80 L 273.90 588.40 L 275.40 591.90 L 275.60 593.70 L 275.40 595.60 L 269.20 610.90 L 251.40 603.60 L 257.90 588.40 L 260.50 585.80 L 264.10 584.30 L 266.00 584.10 Z" fill="#6b6765" fill-rule="nonzero" group-id="1,135" node-id="954" stroke="none" target-height="31.700012" target-width="28.90001" target-x="249.3" target-y="582"></path></g></g></svg>