<svg xmlns="http://www.w3.org/2000/svg" viewBox="0 0 100 100" width="100" height="100">
  <!-- 机器人头部 -->
  <rect x="25" y="20" width="50" height="40" rx="10" ry="10" fill="#4F46E5" stroke="#312E81" stroke-width="2"/>
  
  <!-- 机器人眼睛 -->
  <circle cx="35" cy="35" r="4" fill="#FFFFFF"/>
  <circle cx="65" cy="35" r="4" fill="#FFFFFF"/>
  <circle cx="35" cy="35" r="2" fill="#1F2937"/>
  <circle cx="65" cy="35" r="2" fill="#1F2937"/>
  
  <!-- 机器人嘴巴 -->
  <rect x="42" y="45" width="16" height="3" rx="1.5" fill="#FFFFFF"/>
  
  <!-- 机器人身体 -->
  <rect x="20" y="60" width="60" height="30" rx="5" ry="5" fill="#6366F1" stroke="#312E81" stroke-width="2"/>
  
  <!-- 机器人手臂 -->
  <rect x="10" y="65" width="15" height="8" rx="4" ry="4" fill="#8B5CF6"/>
  <rect x="75" y="65" width="15" height="8" rx="4" ry="4" fill="#8B5CF6"/>
  
  <!-- 机器人腿部 -->
  <rect x="30" y="90" width="8" height="15" rx="4" ry="4" fill="#A78BFA"/>
  <rect x="62" y="90" width="8" height="15" rx="4" ry="4" fill="#A78BFA"/>
  
  <!-- 装饰性元素 -->
  <circle cx="30" cy="75" r="3" fill="#34D399"/>
  <circle cx="50" cy="75" r="3" fill="#F59E0B"/>
  <circle cx="70" cy="75" r="3" fill="#EF4444"/>
  
  <!-- 天线 -->
  <line x1="50" y1="20" x2="50" y2="10" stroke="#312E81" stroke-width="2" stroke-linecap="round"/>
  <circle cx="50" cy="8" r="3" fill="#EF4444"/>
</svg>